<?xml version="1.0" encoding="utf-8" standalone="no"?>
<!DOCTYPE svg PUBLIC "-//W3C//DTD SVG 1.1//EN"
  "http://www.w3.org/Graphics/SVG/1.1/DTD/svg11.dtd">
<!-- Created with matplotlib (https://matplotlib.org/) -->
<svg height="168.9334pt" version="1.1" viewBox="0 0 376.18996 168.9334" width="376.18996pt" xmlns="http://www.w3.org/2000/svg" xmlns:xlink="http://www.w3.org/1999/xlink">
 <defs>
  <style type="text/css">
*{stroke-linecap:butt;stroke-linejoin:round;}
  </style>
 </defs>
 <g id="figure_1">
  <g id="patch_1">
   <path d="M 0 168.9334 
L 376.18996 168.9334 
L 376.18996 0 
L 0 0 
z
" style="fill:#ffffff;"/>
  </g>
  <g id="axes_1">
   <g id="patch_2">
    <path clip-path="url(#p818275e321)" d="M 313.08523 124.122697 
L 324.90249 124.122697 
L 318.99386 134.4628 
z
" style="fill:#778899;"/>
   </g>
   <g id="line2d_1">
    <path clip-path="url(#p818275e321)" d="M 100.82906 43.5608 
L 364.44486 43.5608 
" style="fill:none;stroke:#000000;stroke-linecap:square;stroke-width:2;"/>
   </g>
   <g id="line2d_2">
    <path clip-path="url(#p818275e321)" d="M 100.82906 89.0118 
L 364.44486 89.0118 
" style="fill:none;stroke:#000000;stroke-linecap:square;stroke-width:2;"/>
   </g>
   <g id="line2d_3">
    <path clip-path="url(#p818275e321)" d="M 100.82906 132.985642 
L 364.44486 132.985642 
" style="fill:none;stroke:#778899;stroke-linecap:square;stroke-width:2;"/>
   </g>
   <g id="line2d_4">
    <path clip-path="url(#p818275e321)" d="M 100.82906 135.939957 
L 364.44486 135.939957 
" style="fill:none;stroke:#778899;stroke-linecap:square;stroke-width:2;"/>
   </g>
   <g id="line2d_5">
    <path clip-path="url(#p818275e321)" d="M 228.09186 89.0118 
L 228.09186 43.5608 
" style="fill:none;stroke:#6fa4ff;stroke-linecap:square;stroke-width:2;"/>
   </g>
   <g id="line2d_6">
    <path clip-path="url(#p818275e321)" d="M 320.471017 43.5608 
L 320.471017 124.122697 
" style="fill:none;stroke:#778899;stroke-linecap:square;stroke-width:2;"/>
   </g>
   <g id="line2d_7">
    <path clip-path="url(#p818275e321)" d="M 317.516702 43.5608 
L 317.516702 124.122697 
" style="fill:none;stroke:#778899;stroke-linecap:square;stroke-width:2;"/>
   </g>
   <g id="patch_3">
    <path clip-path="url(#p818275e321)" d="M 122.418285 103.783375 
L 151.961435 103.783375 
L 151.961435 74.240225 
L 122.418285 74.240225 
z
" style="fill:#05bab6;"/>
   </g>
   <g id="patch_4">
    <path clip-path="url(#p818275e321)" d="M 122.418285 58.332375 
L 151.961435 58.332375 
L 151.961435 28.789225 
L 122.418285 28.789225 
z
" style="fill:#6fa4ff;"/>
   </g>
   <g id="patch_5">
    <path clip-path="url(#p818275e321)" d="M 167.869285 103.783375 
L 197.412435 103.783375 
L 197.412435 74.240225 
L 167.869285 74.240225 
z
" style="fill:#6fa4ff;"/>
   </g>
   <g id="patch_6">
    <path clip-path="url(#p818275e321)" d="M 228.09186 47.992272 
C 229.2671 47.992272 230.394364 47.525345 231.225384 46.694324 
C 232.056405 45.863304 232.523332 44.73604 232.523332 43.5608 
C 232.523332 42.38556 232.056405 41.258296 231.225384 40.427276 
C 230.394364 39.596255 229.2671 39.129327 228.09186 39.129327 
C 226.91662 39.129327 225.789356 39.596255 224.958336 40.427276 
C 224.127315 41.258296 223.660387 42.38556 223.660387 43.5608 
C 223.660387 44.73604 224.127315 45.863304 224.958336 46.694324 
C 225.789356 47.525345 226.91662 47.992272 228.09186 47.992272 
z
" style="fill:#6fa4ff;stroke:#6fa4ff;stroke-linejoin:miter;stroke-width:1.5;"/>
   </g>
   <g id="patch_7">
    <path clip-path="url(#p818275e321)" d="M 228.09186 99.351902 
C 230.834087 99.351902 233.464369 98.262404 235.403417 96.323357 
C 237.342464 94.384309 238.431962 91.754027 238.431962 89.0118 
C 238.431962 86.269573 237.342464 83.639291 235.403417 81.700243 
C 233.464369 79.761196 230.834087 78.671697 228.09186 78.671697 
C 225.349633 78.671697 222.719351 79.761196 220.780303 81.700243 
C 218.841256 83.639291 217.751757 86.269573 217.751757 89.0118 
C 217.751757 91.754027 218.841256 94.384309 220.780303 96.323357 
C 222.719351 98.262404 225.349633 99.351902 228.09186 99.351902 
z
" style="fill:#6fa4ff;stroke:#6fa4ff;stroke-linejoin:miter;stroke-width:2;"/>
   </g>
   <g id="patch_8">
    <path clip-path="url(#p818275e321)" d="M 258.771285 58.332375 
L 288.314435 58.332375 
L 288.314435 28.789225 
L 258.771285 28.789225 
z
" style="fill:#6fa4ff;"/>
   </g>
   <g id="patch_9">
    <path clip-path="url(#p818275e321)" d="M 304.222285 58.332375 
L 333.765435 58.332375 
L 333.765435 28.789225 
L 304.222285 28.789225 
z
"/>
   </g>
   <g id="patch_10">
    <path clip-path="url(#p818275e321)" d="M 329.333962 47.992272 
C 329.333962 45.250959 328.243818 42.619118 326.305417 40.680716 
C 324.367015 38.742314 321.735174 37.65217 318.99386 37.65217 
C 316.252546 37.65217 313.620705 38.742314 311.682303 40.680716 
C 309.743902 42.619118 308.653757 45.250959 308.653757 47.992272 
" style="fill:none;stroke:#ffffff;stroke-linejoin:miter;stroke-width:2;"/>
   </g>
   <g id="line2d_8">
    <path clip-path="url(#p818275e321)" d="M 318.99386 47.992272 
L 329.333962 37.65217 
" style="fill:none;stroke:#ffffff;stroke-linecap:square;stroke-width:2;"/>
   </g>
   <g id="line2d_9">
    <path clip-path="url(#p818275e321)" d="M 228.09186 94.92043 
L 228.09186 83.10317 
" style="fill:none;stroke:#ffffff;stroke-linecap:square;stroke-width:2;"/>
   </g>
   <g id="line2d_10">
    <path clip-path="url(#p818275e321)" d="M 222.18323 89.0118 
L 234.00049 89.0118 
" style="fill:none;stroke:#ffffff;stroke-linecap:square;stroke-width:2;"/>
   </g>
   <g id="text_1">
    <g clip-path="url(#p818275e321)">
     <!-- $X$ -->
     <defs>
      <path d="M 13.71875 72.90625 
L 23.6875 72.90625 
L 36.1875 46.578125 
L 58.796875 72.90625 
L 70.3125 72.90625 
L 40.28125 38.09375 
L 58.40625 0 
L 48.484375 0 
L 33.796875 30.71875 
L 7.171875 0 
L -4.296875 0 
L 29.78125 39.203125 
z
" id="DejaVuSans-Oblique-88"/>
     </defs>
     <g transform="translate(132.70486 92.598987)scale(0.13 -0.13)">
      <use transform="translate(0 0.09375)" xlink:href="#DejaVuSans-Oblique-88"/>
     </g>
    </g>
   </g>
   <g id="text_2">
    <g clip-path="url(#p818275e321)">
     <!-- $H$ -->
     <defs>
      <path d="M 16.890625 72.90625 
L 26.8125 72.90625 
L 21 43.015625 
L 56.78125 43.015625 
L 62.59375 72.90625 
L 72.515625 72.90625 
L 58.296875 0 
L 48.390625 0 
L 55.171875 34.71875 
L 19.390625 34.71875 
L 12.59375 0 
L 2.6875 0 
z
" id="DejaVuSans-Oblique-72"/>
     </defs>
     <g transform="translate(132.24986 47.147987)scale(0.13 -0.13)">
      <use transform="translate(0 0.09375)" xlink:href="#DejaVuSans-Oblique-72"/>
     </g>
    </g>
   </g>
   <g id="text_3">
    <g clip-path="url(#p818275e321)">
     <!-- $H$ -->
     <g transform="translate(177.70086 92.598987)scale(0.13 -0.13)">
      <use transform="translate(0 0.09375)" xlink:href="#DejaVuSans-Oblique-72"/>
     </g>
    </g>
   </g>
   <g id="text_4">
    <g clip-path="url(#p818275e321)">
     <!-- $H$ -->
     <g transform="translate(268.60286 47.147987)scale(0.13 -0.13)">
      <use transform="translate(0 0.09375)" xlink:href="#DejaVuSans-Oblique-72"/>
     </g>
    </g>
   </g>
   <g id="text_5">
    <g clip-path="url(#p818275e321)">
     <!-- 0 -->
     <defs>
      <path d="M 31.78125 66.40625 
Q 24.171875 66.40625 20.328125 58.90625 
Q 16.5 51.421875 16.5 36.375 
Q 16.5 21.390625 20.328125 13.890625 
Q 24.171875 6.390625 31.78125 6.390625 
Q 39.453125 6.390625 43.28125 13.890625 
Q 47.125 21.390625 47.125 36.375 
Q 47.125 51.421875 43.28125 58.90625 
Q 39.453125 66.40625 31.78125 66.40625 
z
M 31.78125 74.21875 
Q 44.046875 74.21875 50.515625 64.515625 
Q 56.984375 54.828125 56.984375 36.375 
Q 56.984375 17.96875 50.515625 8.265625 
Q 44.046875 -1.421875 31.78125 -1.421875 
Q 19.53125 -1.421875 13.0625 8.265625 
Q 6.59375 17.96875 6.59375 36.375 
Q 6.59375 54.828125 13.0625 64.515625 
Q 19.53125 74.21875 31.78125 74.21875 
z
" id="DejaVuSans-48"/>
     </defs>
     <g transform="translate(330.35661 127.754825)scale(0.104 -0.104)">
      <use xlink:href="#DejaVuSans-48"/>
     </g>
    </g>
   </g>
   <g id="text_6">
    <g clip-path="url(#p818275e321)">
     <!-- ${w}_{0}$ -->
     <defs>
      <path d="M 8.5 54.6875 
L 17.390625 54.6875 
L 19.671875 10.6875 
L 40.09375 54.6875 
L 50.484375 54.6875 
L 53.515625 10.6875 
L 72.90625 54.6875 
L 81.890625 54.6875 
L 56.890625 0 
L 46.390625 0 
L 43.703125 45.3125 
L 22.796875 0 
L 12.203125 0 
z
" id="DejaVuSans-Oblique-119"/>
     </defs>
     <g transform="translate(61.52366 48.044784)scale(0.1625 -0.1625)">
      <use transform="translate(0 0.3125)" xlink:href="#DejaVuSans-Oblique-119"/>
      <use transform="translate(81.787109 -16.09375)scale(0.7)" xlink:href="#DejaVuSans-48"/>
     </g>
    </g>
   </g>
   <g id="text_7">
    <g clip-path="url(#p818275e321)">
     <!-- ${a}_{0}$ -->
     <defs>
      <path d="M 53.71875 31.203125 
L 47.609375 0 
L 38.625 0 
L 40.28125 8.296875 
Q 36.328125 3.421875 31.265625 1 
Q 26.21875 -1.421875 20.015625 -1.421875 
Q 13.03125 -1.421875 8.5625 2.84375 
Q 4.109375 7.125 4.109375 13.8125 
Q 4.109375 23.390625 11.75 28.953125 
Q 19.390625 34.515625 32.8125 34.515625 
L 45.3125 34.515625 
L 45.796875 36.921875 
Q 45.90625 37.3125 45.953125 37.765625 
Q 46 38.234375 46 39.203125 
Q 46 43.5625 42.453125 45.96875 
Q 38.921875 48.390625 32.515625 48.390625 
Q 28.125 48.390625 23.5 47.265625 
Q 18.890625 46.140625 14.015625 43.890625 
L 15.578125 52.203125 
Q 20.65625 54.109375 25.515625 55.046875 
Q 30.375 56 34.90625 56 
Q 44.578125 56 49.625 51.796875 
Q 54.6875 47.609375 54.6875 39.59375 
Q 54.6875 37.984375 54.4375 35.8125 
Q 54.203125 33.640625 53.71875 31.203125 
z
M 44 27.484375 
L 35.015625 27.484375 
Q 23.96875 27.484375 18.671875 24.53125 
Q 13.375 21.578125 13.375 15.375 
Q 13.375 11.078125 16.078125 8.640625 
Q 18.796875 6.203125 23.578125 6.203125 
Q 30.90625 6.203125 36.375 11.453125 
Q 41.84375 16.703125 43.609375 25.484375 
z
" id="DejaVuSans-Oblique-97"/>
     </defs>
     <g transform="translate(64.93616 93.495784)scale(0.1625 -0.1625)">
      <use xlink:href="#DejaVuSans-Oblique-97"/>
      <use transform="translate(61.279297 -16.40625)scale(0.7)" xlink:href="#DejaVuSans-48"/>
     </g>
    </g>
   </g>
   <g id="text_8">
    <g clip-path="url(#p818275e321)">
     <!-- $c$ -->
     <defs>
      <path d="M 53.609375 52.59375 
L 51.8125 43.703125 
Q 48.578125 46.046875 44.9375 47.21875 
Q 41.3125 48.390625 37.40625 48.390625 
Q 33.109375 48.390625 29.21875 46.875 
Q 25.34375 45.359375 22.703125 42.578125 
Q 18.5 38.328125 16.203125 32.609375 
Q 13.921875 26.90625 13.921875 20.796875 
Q 13.921875 13.421875 17.609375 9.8125 
Q 21.296875 6.203125 28.8125 6.203125 
Q 32.515625 6.203125 36.6875 7.328125 
Q 40.875 8.453125 45.40625 10.6875 
L 43.703125 1.8125 
Q 39.796875 0.203125 35.671875 -0.609375 
Q 31.546875 -1.421875 27.203125 -1.421875 
Q 16.3125 -1.421875 10.453125 4.015625 
Q 4.59375 9.46875 4.59375 19.578125 
Q 4.59375 28.078125 7.640625 35.234375 
Q 10.6875 42.390625 16.703125 48.09375 
Q 20.796875 52 26.3125 54 
Q 31.84375 56 38.375 56 
Q 42.1875 56 45.9375 55.140625 
Q 49.703125 54.296875 53.609375 52.59375 
z
" id="DejaVuSans-Oblique-99"/>
     </defs>
     <g transform="translate(71.92366 139.843581)scale(0.195 -0.195)">
      <use xlink:href="#DejaVuSans-Oblique-99"/>
     </g>
    </g>
   </g>
  </g>
 </g>
 <defs>
  <clipPath id="p818275e321">
   <rect height="154.5334" width="361.78996" x="7.2" y="7.2"/>
  </clipPath>
 </defs>
</svg>
