<?xml version="1.0" encoding="utf-8" standalone="no"?>
<!DOCTYPE svg PUBLIC "-//W3C//DTD SVG 1.1//EN"
  "http://www.w3.org/Graphics/SVG/1.1/DTD/svg11.dtd">
<!-- Created with matplotlib (https://matplotlib.org/) -->
<svg height="168.9334pt" version="1.1" viewBox="0 0 566.17514 168.9334" width="566.17514pt" xmlns="http://www.w3.org/2000/svg" xmlns:xlink="http://www.w3.org/1999/xlink">
 <defs>
  <style type="text/css">
*{stroke-linecap:butt;stroke-linejoin:round;}
  </style>
 </defs>
 <g id="figure_1">
  <g id="patch_1">
   <path d="M 0 168.9334 
L 566.17514 168.9334 
L 566.17514 0 
L 0 0 
z
" style="fill:#ffffff;"/>
  </g>
  <g id="axes_1">
   <g id="patch_2">
    <path clip-path="url(#p5d64f6bee9)" d="M 457.61941 124.122697 
L 469.43667 124.122697 
L 463.52804 134.4628 
z
" style="fill:#778899;"/>
   </g>
   <g id="patch_3">
    <path clip-path="url(#p5d64f6bee9)" d="M 503.07041 124.122697 
L 514.88767 124.122697 
L 508.97904 134.4628 
z
" style="fill:#778899;"/>
   </g>
   <g id="line2d_1">
    <path clip-path="url(#p5d64f6bee9)" d="M 109.01024 43.5608 
L 554.43004 43.5608 
" style="fill:none;stroke:#000000;stroke-linecap:square;stroke-width:2;"/>
   </g>
   <g id="line2d_2">
    <path clip-path="url(#p5d64f6bee9)" d="M 109.01024 89.0118 
L 554.43004 89.0118 
" style="fill:none;stroke:#000000;stroke-linecap:square;stroke-width:2;"/>
   </g>
   <g id="line2d_3">
    <path clip-path="url(#p5d64f6bee9)" d="M 109.01024 132.985642 
L 554.43004 132.985642 
" style="fill:none;stroke:#778899;stroke-linecap:square;stroke-width:2;"/>
   </g>
   <g id="line2d_4">
    <path clip-path="url(#p5d64f6bee9)" d="M 109.01024 135.939957 
L 554.43004 135.939957 
" style="fill:none;stroke:#778899;stroke-linecap:square;stroke-width:2;"/>
   </g>
   <g id="patch_4">
    <path clip-path="url(#p5d64f6bee9)" d="M 409.214095 111.7373 
L 426.939985 111.7373 
L 426.939985 20.8353 
L 409.214095 20.8353 
z
" style="fill:#bdbdbd;opacity:0.6;"/>
   </g>
   <g id="line2d_5">
    <path clip-path="url(#p5d64f6bee9)" d="M 190.82204 89.0118 
L 190.82204 43.5608 
" style="fill:none;stroke:#6fa4ff;stroke-linecap:square;stroke-width:2;"/>
   </g>
   <g id="line2d_6">
    <path clip-path="url(#p5d64f6bee9)" d="M 327.17504 89.0118 
L 327.17504 43.5608 
" style="fill:none;stroke:#6fa4ff;stroke-linecap:square;stroke-width:2;"/>
   </g>
   <g id="line2d_7">
    <path clip-path="url(#p5d64f6bee9)" d="M 465.005197 43.5608 
L 465.005197 124.122697 
" style="fill:none;stroke:#778899;stroke-linecap:square;stroke-width:2;"/>
   </g>
   <g id="line2d_8">
    <path clip-path="url(#p5d64f6bee9)" d="M 462.050882 43.5608 
L 462.050882 124.122697 
" style="fill:none;stroke:#778899;stroke-linecap:square;stroke-width:2;"/>
   </g>
   <g id="line2d_9">
    <path clip-path="url(#p5d64f6bee9)" d="M 510.456197 89.0118 
L 510.456197 124.122697 
" style="fill:none;stroke:#778899;stroke-linecap:square;stroke-width:2;"/>
   </g>
   <g id="line2d_10">
    <path clip-path="url(#p5d64f6bee9)" d="M 507.501882 89.0118 
L 507.501882 124.122697 
" style="fill:none;stroke:#778899;stroke-linecap:square;stroke-width:2;"/>
   </g>
   <g id="line2d_11">
    <path clip-path="url(#p5d64f6bee9)" d="M 149.91614 139.0079 
L 154.46124 129.9177 
" style="fill:none;stroke:#778899;stroke-linecap:square;stroke-width:1.5;"/>
   </g>
   <g id="patch_5">
    <path clip-path="url(#p5d64f6bee9)" d="M 130.599465 58.332375 
L 160.142615 58.332375 
L 160.142615 28.789225 
L 130.599465 28.789225 
z
" style="fill:#6fa4ff;"/>
   </g>
   <g id="patch_6">
    <path clip-path="url(#p5d64f6bee9)" d="M 130.599465 103.783375 
L 160.142615 103.783375 
L 160.142615 74.240225 
L 130.599465 74.240225 
z
" style="fill:#6fa4ff;"/>
   </g>
   <g id="patch_7">
    <path clip-path="url(#p5d64f6bee9)" d="M 190.82204 47.992272 
C 191.99728 47.992272 193.124544 47.525345 193.955564 46.694324 
C 194.786585 45.863304 195.253512 44.73604 195.253512 43.5608 
C 195.253512 42.38556 194.786585 41.258296 193.955564 40.427276 
C 193.124544 39.596255 191.99728 39.129327 190.82204 39.129327 
C 189.6468 39.129327 188.519536 39.596255 187.688516 40.427276 
C 186.857495 41.258296 186.390567 42.38556 186.390567 43.5608 
C 186.390567 44.73604 186.857495 45.863304 187.688516 46.694324 
C 188.519536 47.525345 189.6468 47.992272 190.82204 47.992272 
z
" style="fill:#6fa4ff;stroke:#6fa4ff;stroke-linejoin:miter;stroke-width:1.5;"/>
   </g>
   <g id="patch_8">
    <path clip-path="url(#p5d64f6bee9)" d="M 190.82204 93.443272 
C 191.99728 93.443272 193.124544 92.976345 193.955564 92.145324 
C 194.786585 91.314304 195.253512 90.18704 195.253512 89.0118 
C 195.253512 87.83656 194.786585 86.709296 193.955564 85.878276 
C 193.124544 85.047255 191.99728 84.580327 190.82204 84.580327 
C 189.6468 84.580327 188.519536 85.047255 187.688516 85.878276 
C 186.857495 86.709296 186.390567 87.83656 186.390567 89.0118 
C 186.390567 90.18704 186.857495 91.314304 187.688516 92.145324 
C 188.519536 92.976345 189.6468 93.443272 190.82204 93.443272 
z
" style="fill:#6fa4ff;stroke:#6fa4ff;stroke-linejoin:miter;stroke-width:1.5;"/>
   </g>
   <g id="patch_9">
    <path clip-path="url(#p5d64f6bee9)" d="M 221.501465 58.332375 
L 251.044615 58.332375 
L 251.044615 28.789225 
L 221.501465 28.789225 
z
" style="fill:#6fa4ff;"/>
   </g>
   <g id="patch_10">
    <path clip-path="url(#p5d64f6bee9)" d="M 221.501465 103.783375 
L 251.044615 103.783375 
L 251.044615 74.240225 
L 221.501465 74.240225 
z
" style="fill:#6fa4ff;"/>
   </g>
   <g id="patch_11">
    <path clip-path="url(#p5d64f6bee9)" d="M 266.952465 58.332375 
L 296.495615 58.332375 
L 296.495615 28.789225 
L 266.952465 28.789225 
z
" style="fill:#05bab6;"/>
   </g>
   <g id="patch_12">
    <path clip-path="url(#p5d64f6bee9)" d="M 266.952465 103.783375 
L 296.495615 103.783375 
L 296.495615 74.240225 
L 266.952465 74.240225 
z
" style="fill:#05bab6;"/>
   </g>
   <g id="patch_13">
    <path clip-path="url(#p5d64f6bee9)" d="M 327.17504 47.992272 
C 328.35028 47.992272 329.477544 47.525345 330.308564 46.694324 
C 331.139585 45.863304 331.606512 44.73604 331.606512 43.5608 
C 331.606512 42.38556 331.139585 41.258296 330.308564 40.427276 
C 329.477544 39.596255 328.35028 39.129327 327.17504 39.129327 
C 325.9998 39.129327 324.872536 39.596255 324.041516 40.427276 
C 323.210495 41.258296 322.743567 42.38556 322.743567 43.5608 
C 322.743567 44.73604 323.210495 45.863304 324.041516 46.694324 
C 324.872536 47.525345 325.9998 47.992272 327.17504 47.992272 
z
" style="fill:#6fa4ff;stroke:#6fa4ff;stroke-linejoin:miter;stroke-width:1.5;"/>
   </g>
   <g id="patch_14">
    <path clip-path="url(#p5d64f6bee9)" d="M 327.17504 93.443272 
C 328.35028 93.443272 329.477544 92.976345 330.308564 92.145324 
C 331.139585 91.314304 331.606512 90.18704 331.606512 89.0118 
C 331.606512 87.83656 331.139585 86.709296 330.308564 85.878276 
C 329.477544 85.047255 328.35028 84.580327 327.17504 84.580327 
C 325.9998 84.580327 324.872536 85.047255 324.041516 85.878276 
C 323.210495 86.709296 322.743567 87.83656 322.743567 89.0118 
C 322.743567 90.18704 323.210495 91.314304 324.041516 92.145324 
C 324.872536 92.976345 325.9998 93.443272 327.17504 93.443272 
z
" style="fill:#6fa4ff;stroke:#6fa4ff;stroke-linejoin:miter;stroke-width:1.5;"/>
   </g>
   <g id="patch_15">
    <path clip-path="url(#p5d64f6bee9)" d="M 357.854465 58.332375 
L 387.397615 58.332375 
L 387.397615 28.789225 
L 357.854465 28.789225 
z
" style="fill:#6fa4ff;"/>
   </g>
   <g id="patch_16">
    <path clip-path="url(#p5d64f6bee9)" d="M 357.854465 103.783375 
L 387.397615 103.783375 
L 387.397615 74.240225 
L 357.854465 74.240225 
z
" style="fill:#6fa4ff;"/>
   </g>
   <g id="patch_17">
    <path clip-path="url(#p5d64f6bee9)" d="M 448.756465 58.332375 
L 478.299615 58.332375 
L 478.299615 28.789225 
L 448.756465 28.789225 
z
"/>
   </g>
   <g id="patch_18">
    <path clip-path="url(#p5d64f6bee9)" d="M 473.868142 47.992272 
C 473.868142 45.250959 472.777998 42.619118 470.839597 40.680716 
C 468.901195 38.742314 466.269354 37.65217 463.52804 37.65217 
C 460.786726 37.65217 458.154885 38.742314 456.216483 40.680716 
C 454.278082 42.619118 453.187937 45.250959 453.187937 47.992272 
" style="fill:none;stroke:#ffffff;stroke-linejoin:miter;stroke-width:2;"/>
   </g>
   <g id="patch_19">
    <path clip-path="url(#p5d64f6bee9)" d="M 494.207465 103.783375 
L 523.750615 103.783375 
L 523.750615 74.240225 
L 494.207465 74.240225 
z
"/>
   </g>
   <g id="patch_20">
    <path clip-path="url(#p5d64f6bee9)" d="M 519.319142 93.443272 
C 519.319142 90.701959 518.228998 88.070118 516.290597 86.131716 
C 514.352195 84.193314 511.720354 83.10317 508.97904 83.10317 
C 506.237726 83.10317 503.605885 84.193314 501.667483 86.131716 
C 499.729082 88.070118 498.638937 90.701959 498.638937 93.443272 
" style="fill:none;stroke:#ffffff;stroke-linejoin:miter;stroke-width:2;"/>
   </g>
   <g id="line2d_12">
    <path clip-path="url(#p5d64f6bee9)" d="M 463.52804 47.992272 
L 473.868142 37.65217 
" style="fill:none;stroke:#ffffff;stroke-linecap:square;stroke-width:2;"/>
   </g>
   <g id="line2d_13">
    <path clip-path="url(#p5d64f6bee9)" d="M 508.97904 93.443272 
L 519.319142 83.10317 
" style="fill:none;stroke:#ffffff;stroke-linecap:square;stroke-width:2;"/>
   </g>
   <g id="line2d_14">
    <path clip-path="url(#p5d64f6bee9)" d="M 418.07704 20.8353 
L 418.07704 66.2863 
" style="fill:none;stroke:#000000;stroke-dasharray:3.7,1.6;stroke-dashoffset:0;"/>
   </g>
   <g id="line2d_15">
    <path clip-path="url(#p5d64f6bee9)" d="M 418.07704 66.2863 
L 418.07704 111.7373 
" style="fill:none;stroke:#000000;stroke-dasharray:3.7,1.6;stroke-dashoffset:0;"/>
   </g>
   <g id="text_1">
    <g clip-path="url(#p5d64f6bee9)">
     <!-- $H$ -->
     <defs>
      <path d="M 16.890625 72.90625 
L 26.8125 72.90625 
L 21 43.015625 
L 56.78125 43.015625 
L 62.59375 72.90625 
L 72.515625 72.90625 
L 58.296875 0 
L 48.390625 0 
L 55.171875 34.71875 
L 19.390625 34.71875 
L 12.59375 0 
L 2.6875 0 
z
" id="DejaVuSans-Oblique-72"/>
     </defs>
     <g transform="translate(140.43104 47.147987)scale(0.13 -0.13)">
      <use transform="translate(0 0.09375)" xlink:href="#DejaVuSans-Oblique-72"/>
     </g>
    </g>
   </g>
   <g id="text_2">
    <g clip-path="url(#p5d64f6bee9)">
     <!-- $H$ -->
     <g transform="translate(140.43104 92.598987)scale(0.13 -0.13)">
      <use transform="translate(0 0.09375)" xlink:href="#DejaVuSans-Oblique-72"/>
     </g>
    </g>
   </g>
   <g id="text_3">
    <g clip-path="url(#p5d64f6bee9)">
     <!-- $H$ -->
     <g transform="translate(231.33304 47.147987)scale(0.13 -0.13)">
      <use transform="translate(0 0.09375)" xlink:href="#DejaVuSans-Oblique-72"/>
     </g>
    </g>
   </g>
   <g id="text_4">
    <g clip-path="url(#p5d64f6bee9)">
     <!-- $H$ -->
     <g transform="translate(231.33304 92.598987)scale(0.13 -0.13)">
      <use transform="translate(0 0.09375)" xlink:href="#DejaVuSans-Oblique-72"/>
     </g>
    </g>
   </g>
   <g id="text_5">
    <g clip-path="url(#p5d64f6bee9)">
     <!-- $Z$ -->
     <defs>
      <path d="M 13.09375 72.90625 
L 70.3125 72.90625 
L 68.890625 65.375 
L 12.40625 8.296875 
L 58.890625 8.296875 
L 57.328125 0 
L -2.203125 0 
L -0.78125 7.515625 
L 55.71875 64.59375 
L 11.53125 64.59375 
z
" id="DejaVuSans-Oblique-90"/>
     </defs>
     <g transform="translate(277.23904 47.147987)scale(0.13 -0.13)">
      <use transform="translate(0 0.09375)" xlink:href="#DejaVuSans-Oblique-90"/>
     </g>
    </g>
   </g>
   <g id="text_6">
    <g clip-path="url(#p5d64f6bee9)">
     <!-- $Z$ -->
     <g transform="translate(277.23904 92.598987)scale(0.13 -0.13)">
      <use transform="translate(0 0.09375)" xlink:href="#DejaVuSans-Oblique-90"/>
     </g>
    </g>
   </g>
   <g id="text_7">
    <g clip-path="url(#p5d64f6bee9)">
     <!-- $H$ -->
     <g transform="translate(367.68604 47.147987)scale(0.13 -0.13)">
      <use transform="translate(0 0.09375)" xlink:href="#DejaVuSans-Oblique-72"/>
     </g>
    </g>
   </g>
   <g id="text_8">
    <g clip-path="url(#p5d64f6bee9)">
     <!-- $H$ -->
     <g transform="translate(367.68604 92.598987)scale(0.13 -0.13)">
      <use transform="translate(0 0.09375)" xlink:href="#DejaVuSans-Oblique-72"/>
     </g>
    </g>
   </g>
   <g id="text_9">
    <g clip-path="url(#p5d64f6bee9)">
     <!-- 0 -->
     <defs>
      <path d="M 31.78125 66.40625 
Q 24.171875 66.40625 20.328125 58.90625 
Q 16.5 51.421875 16.5 36.375 
Q 16.5 21.390625 20.328125 13.890625 
Q 24.171875 6.390625 31.78125 6.390625 
Q 39.453125 6.390625 43.28125 13.890625 
Q 47.125 21.390625 47.125 36.375 
Q 47.125 51.421875 43.28125 58.90625 
Q 39.453125 66.40625 31.78125 66.40625 
z
M 31.78125 74.21875 
Q 44.046875 74.21875 50.515625 64.515625 
Q 56.984375 54.828125 56.984375 36.375 
Q 56.984375 17.96875 50.515625 8.265625 
Q 44.046875 -1.421875 31.78125 -1.421875 
Q 19.53125 -1.421875 13.0625 8.265625 
Q 6.59375 17.96875 6.59375 36.375 
Q 6.59375 54.828125 13.0625 64.515625 
Q 19.53125 74.21875 31.78125 74.21875 
z
" id="DejaVuSans-48"/>
     </defs>
     <g transform="translate(474.89079 127.754825)scale(0.104 -0.104)">
      <use xlink:href="#DejaVuSans-48"/>
     </g>
    </g>
   </g>
   <g id="text_10">
    <g clip-path="url(#p5d64f6bee9)">
     <!-- 1 -->
     <defs>
      <path d="M 12.40625 8.296875 
L 28.515625 8.296875 
L 28.515625 63.921875 
L 10.984375 60.40625 
L 10.984375 69.390625 
L 28.421875 72.90625 
L 38.28125 72.90625 
L 38.28125 8.296875 
L 54.390625 8.296875 
L 54.390625 0 
L 12.40625 0 
z
" id="DejaVuSans-49"/>
     </defs>
     <g transform="translate(520.34179 127.754825)scale(0.104 -0.104)">
      <use xlink:href="#DejaVuSans-49"/>
     </g>
    </g>
   </g>
   <g id="text_11">
    <g clip-path="url(#p5d64f6bee9)">
     <!-- ${q0}_{0}$ -->
     <defs>
      <path d="M 41.703125 8.203125 
Q 38.09375 3.46875 33.171875 1.015625 
Q 28.265625 -1.421875 22.3125 -1.421875 
Q 14.015625 -1.421875 9.296875 4.171875 
Q 4.59375 9.765625 4.59375 19.578125 
Q 4.59375 27.484375 7.5 34.859375 
Q 10.40625 42.234375 15.828125 48.09375 
Q 19.34375 51.90625 23.90625 53.953125 
Q 28.46875 56 33.5 56 
Q 39.546875 56 43.453125 53.609375 
Q 47.359375 51.21875 49.125 46.390625 
L 50.6875 54.59375 
L 59.71875 54.59375 
L 45.125 -20.609375 
L 36.078125 -20.609375 
z
M 13.921875 20.90625 
Q 13.921875 13.671875 16.9375 9.890625 
Q 19.96875 6.109375 25.6875 6.109375 
Q 34.1875 6.109375 40.1875 14.234375 
Q 46.1875 22.359375 46.1875 33.984375 
Q 46.1875 41.015625 43.078125 44.75 
Q 39.984375 48.484375 34.1875 48.484375 
Q 29.9375 48.484375 26.3125 46.5 
Q 22.703125 44.53125 20.015625 40.71875 
Q 17.1875 36.71875 15.546875 31.34375 
Q 13.921875 25.984375 13.921875 20.90625 
z
" id="DejaVuSans-Oblique-113"/>
     </defs>
     <g transform="translate(62.22984 48.011777)scale(0.1625 -0.1625)">
      <use transform="translate(0 0.78125)" xlink:href="#DejaVuSans-Oblique-113"/>
      <use transform="translate(63.476562 0.78125)" xlink:href="#DejaVuSans-48"/>
      <use transform="translate(128.056641 -15.625)scale(0.7)" xlink:href="#DejaVuSans-48"/>
     </g>
    </g>
   </g>
   <g id="text_12">
    <g clip-path="url(#p5d64f6bee9)">
     <!-- ${q0}_{1}$ -->
     <g transform="translate(62.22984 93.462777)scale(0.1625 -0.1625)">
      <use transform="translate(0 0.78125)" xlink:href="#DejaVuSans-Oblique-113"/>
      <use transform="translate(63.476562 0.78125)" xlink:href="#DejaVuSans-48"/>
      <use transform="translate(128.056641 -15.625)scale(0.7)" xlink:href="#DejaVuSans-49"/>
     </g>
    </g>
   </g>
   <g id="text_13">
    <g clip-path="url(#p5d64f6bee9)">
     <!-- 2 -->
     <defs>
      <path d="M 19.1875 8.296875 
L 53.609375 8.296875 
L 53.609375 0 
L 7.328125 0 
L 7.328125 8.296875 
Q 12.9375 14.109375 22.625 23.890625 
Q 32.328125 33.6875 34.8125 36.53125 
Q 39.546875 41.84375 41.421875 45.53125 
Q 43.3125 49.21875 43.3125 52.78125 
Q 43.3125 58.59375 39.234375 62.25 
Q 35.15625 65.921875 28.609375 65.921875 
Q 23.96875 65.921875 18.8125 64.3125 
Q 13.671875 62.703125 7.8125 59.421875 
L 7.8125 69.390625 
Q 13.765625 71.78125 18.9375 73 
Q 24.125 74.21875 28.421875 74.21875 
Q 39.75 74.21875 46.484375 68.546875 
Q 53.21875 62.890625 53.21875 53.421875 
Q 53.21875 48.921875 51.53125 44.890625 
Q 49.859375 40.875 45.40625 35.40625 
Q 44.1875 33.984375 37.640625 27.21875 
Q 31.109375 20.453125 19.1875 8.296875 
z
" id="DejaVuSans-50"/>
     </defs>
     <g transform="translate(145.37104 127.754825)scale(0.104 -0.104)">
      <use xlink:href="#DejaVuSans-50"/>
     </g>
    </g>
   </g>
   <g id="text_14">
    <g clip-path="url(#p5d64f6bee9)">
     <!-- $c0$ -->
     <defs>
      <path d="M 53.609375 52.59375 
L 51.8125 43.703125 
Q 48.578125 46.046875 44.9375 47.21875 
Q 41.3125 48.390625 37.40625 48.390625 
Q 33.109375 48.390625 29.21875 46.875 
Q 25.34375 45.359375 22.703125 42.578125 
Q 18.5 38.328125 16.203125 32.609375 
Q 13.921875 26.90625 13.921875 20.796875 
Q 13.921875 13.421875 17.609375 9.8125 
Q 21.296875 6.203125 28.8125 6.203125 
Q 32.515625 6.203125 36.6875 7.328125 
Q 40.875 8.453125 45.40625 10.6875 
L 43.703125 1.8125 
Q 39.796875 0.203125 35.671875 -0.609375 
Q 31.546875 -1.421875 27.203125 -1.421875 
Q 16.3125 -1.421875 10.453125 4.015625 
Q 4.59375 9.46875 4.59375 19.578125 
Q 4.59375 28.078125 7.640625 35.234375 
Q 10.6875 42.390625 16.703125 48.09375 
Q 20.796875 52 26.3125 54 
Q 31.84375 56 38.375 56 
Q 42.1875 56 45.9375 55.140625 
Q 49.703125 54.296875 53.609375 52.59375 
z
" id="DejaVuSans-Oblique-99"/>
     </defs>
     <g transform="translate(67.62484 139.843581)scale(0.195 -0.195)">
      <use transform="translate(0 0.78125)" xlink:href="#DejaVuSans-Oblique-99"/>
      <use transform="translate(54.980469 0.78125)" xlink:href="#DejaVuSans-48"/>
     </g>
    </g>
   </g>
  </g>
 </g>
 <defs>
  <clipPath id="p5d64f6bee9">
   <rect height="154.5334" width="551.77514" x="7.2" y="7.2"/>
  </clipPath>
 </defs>
</svg>
