<?xml version="1.0" encoding="utf-8" standalone="no"?>
<!DOCTYPE svg PUBLIC "-//W3C//DTD SVG 1.1//EN"
  "http://www.w3.org/Graphics/SVG/1.1/DTD/svg11.dtd">
<!-- Created with matplotlib (https://matplotlib.org/) -->
<svg height="286.2pt" version="1.1" viewBox="0 0 851.4 286.2" width="851.4pt" xmlns="http://www.w3.org/2000/svg" xmlns:xlink="http://www.w3.org/1999/xlink">
 <defs>
  <style type="text/css">
*{stroke-linecap:butt;stroke-linejoin:round;}
  </style>
 </defs>
 <g id="figure_1">
  <g id="patch_1">
   <path d="M 0 286.2 
L 851.4 286.2 
L 851.4 0 
L 0 0 
z
" style="fill:none;"/>
  </g>
  <g id="patch_2">
   <path d="M 7.2 279 
L 387.654545 279 
L 387.654545 7.2 
L 7.2 7.2 
z
" style="fill:#ffffff;"/>
  </g>
  <g id="pane3d_1">
   <g id="patch_3">
    <path d="M 57.635129 218.941779 
L 166.523211 152.302577 
L 164.710339 24.966001 
L 49.751034 84.839953 
" style="fill:#f2f2f2;opacity:0.5;stroke:#f2f2f2;stroke-linejoin:miter;"/>
   </g>
  </g>
  <g id="pane3d_2">
   <g id="patch_4">
    <path d="M 166.523211 152.302577 
L 342.911665 189.558191 
L 350.291547 58.381832 
L 164.710339 24.966001 
" style="fill:#e6e6e6;opacity:0.5;stroke:#e6e6e6;stroke-linejoin:miter;"/>
   </g>
  </g>
  <g id="pane3d_3">
   <g id="patch_5">
    <path d="M 57.635129 218.941779 
L 243.219617 262.332012 
L 342.911665 189.558191 
L 166.523211 152.302577 
" style="fill:#ececec;opacity:0.5;stroke:#ececec;stroke-linejoin:miter;"/>
   </g>
  </g>
  <g id="axis3d_1">
   <g id="line2d_1">
    <path d="M 57.635129 218.941779 
L 243.219617 262.332012 
" style="fill:none;stroke:#000000;stroke-linecap:square;stroke-width:0.8;"/>
   </g>
   <g id="Line3DCollection_1">
    <path d="M 80.095817 224.193158 
L 187.933942 156.824812 
L 187.193845 29.01439 
" style="fill:none;stroke:#b0b0b0;stroke-width:0.8;"/>
    <path d="M 125.312337 234.764921 
L 230.984014 165.917566 
L 232.436898 37.160874 
" style="fill:none;stroke:#b0b0b0;stroke-width:0.8;"/>
    <path d="M 171.565289 245.579006 
L 274.948096 175.203371 
L 278.690183 45.48926 
" style="fill:none;stroke:#b0b0b0;stroke-width:0.8;"/>
    <path d="M 218.890721 256.64384 
L 319.855608 184.688442 
L 325.987917 54.00571 
" style="fill:none;stroke:#b0b0b0;stroke-width:0.8;"/>
   </g>
   <g id="xtick_1">
    <g id="line2d_2">
     <path d="M 81.025084 223.612629 
L 78.233807 225.356387 
" style="fill:none;stroke:#000000;stroke-linecap:square;stroke-width:0.8;"/>
    </g>
    <g id="text_1">
     <!-- 00 -->
     <defs>
      <path d="M 31.78125 66.40625 
Q 24.171875 66.40625 20.328125 58.90625 
Q 16.5 51.421875 16.5 36.375 
Q 16.5 21.390625 20.328125 13.890625 
Q 24.171875 6.390625 31.78125 6.390625 
Q 39.453125 6.390625 43.28125 13.890625 
Q 47.125 21.390625 47.125 36.375 
Q 47.125 51.421875 43.28125 58.90625 
Q 39.453125 66.40625 31.78125 66.40625 
z
M 31.78125 74.21875 
Q 44.046875 74.21875 50.515625 64.515625 
Q 56.984375 54.828125 56.984375 36.375 
Q 56.984375 17.96875 50.515625 8.265625 
Q 44.046875 -1.421875 31.78125 -1.421875 
Q 19.53125 -1.421875 13.0625 8.265625 
Q 6.59375 17.96875 6.59375 36.375 
Q 6.59375 54.828125 13.0625 64.515625 
Q 19.53125 74.21875 31.78125 74.21875 
z
" id="DejaVuSans-48"/>
     </defs>
     <g transform="translate(57.987808 257.893301)rotate(-45)scale(0.14 -0.14)">
      <use xlink:href="#DejaVuSans-48"/>
      <use x="63.623047" xlink:href="#DejaVuSans-48"/>
     </g>
    </g>
   </g>
   <g id="xtick_2">
    <g id="line2d_3">
     <path d="M 126.223674 234.171166 
L 123.486217 235.954678 
" style="fill:none;stroke:#000000;stroke-linecap:square;stroke-width:0.8;"/>
    </g>
    <g id="text_2">
     <!-- 01 -->
     <defs>
      <path d="M 12.40625 8.296875 
L 28.515625 8.296875 
L 28.515625 63.921875 
L 10.984375 60.40625 
L 10.984375 69.390625 
L 28.421875 72.90625 
L 38.28125 72.90625 
L 38.28125 8.296875 
L 54.390625 8.296875 
L 54.390625 0 
L 12.40625 0 
z
" id="DejaVuSans-49"/>
     </defs>
     <g transform="translate(103.200198 268.638035)rotate(-45)scale(0.14 -0.14)">
      <use xlink:href="#DejaVuSans-48"/>
      <use x="63.623047" xlink:href="#DejaVuSans-49"/>
     </g>
    </g>
   </g>
   <g id="xtick_3">
    <g id="line2d_4">
     <path d="M 172.457625 244.971567 
L 169.777203 246.796207 
" style="fill:none;stroke:#000000;stroke-linecap:square;stroke-width:0.8;"/>
    </g>
    <g id="text_3">
     <!-- 10 -->
     <g transform="translate(149.45079 279.629498)rotate(-45)scale(0.14 -0.14)">
      <use xlink:href="#DejaVuSans-49"/>
      <use x="63.623047" xlink:href="#DejaVuSans-48"/>
     </g>
    </g>
   </g>
   <g id="xtick_4">
    <g id="line2d_5">
     <path d="M 219.762926 256.022239 
L 217.142936 257.889447 
" style="fill:none;stroke:#000000;stroke-linecap:square;stroke-width:0.8;"/>
    </g>
    <g id="text_4">
     <!-- 11 -->
     <g transform="translate(196.77576 290.876286)rotate(-45)scale(0.14 -0.14)">
      <use xlink:href="#DejaVuSans-49"/>
      <use x="63.623047" xlink:href="#DejaVuSans-49"/>
     </g>
    </g>
   </g>
  </g>
  <g id="axis3d_2">
   <g id="line2d_6">
    <path d="M 342.911665 189.558191 
L 243.219617 262.332012 
" style="fill:none;stroke:#000000;stroke-linecap:square;stroke-width:0.8;"/>
   </g>
   <g id="Line3DCollection_2">
    <path d="M 65.255231 76.764943 
L 72.271044 209.98464 
L 256.658418 252.521872 
" style="fill:none;stroke:#b0b0b0;stroke-width:0.8;"/>
    <path d="M 95.032024 61.256374 
L 100.423407 192.755472 
L 282.474037 233.676826 
" style="fill:none;stroke:#b0b0b0;stroke-width:0.8;"/>
    <path d="M 123.65589 46.348282 
L 127.539382 176.160572 
L 307.296985 215.556417 
" style="fill:none;stroke:#b0b0b0;stroke-width:0.8;"/>
    <path d="M 151.192516 32.006453 
L 153.675164 160.165546 
L 331.183438 198.119635 
" style="fill:none;stroke:#b0b0b0;stroke-width:0.8;"/>
   </g>
   <g id="xtick_5">
    <g id="line2d_7">
     <path d="M 255.115598 252.165952 
L 259.747489 253.234505 
" style="fill:none;stroke:#000000;stroke-linecap:square;stroke-width:0.8;"/>
    </g>
    <g id="text_5">
     <!-- 00 -->
     <g transform="translate(270.632267 264.490613)rotate(-337.5)scale(0.14 -0.14)">
      <use xlink:href="#DejaVuSans-48"/>
      <use x="63.623047" xlink:href="#DejaVuSans-48"/>
     </g>
    </g>
   </g>
   <g id="xtick_6">
    <g id="line2d_8">
     <path d="M 280.95208 233.334721 
L 285.52127 234.361784 
" style="fill:none;stroke:#000000;stroke-linecap:square;stroke-width:0.8;"/>
    </g>
    <g id="text_6">
     <!-- 01 -->
     <g transform="translate(296.183651 245.42315)rotate(-337.5)scale(0.14 -0.14)">
      <use xlink:href="#DejaVuSans-48"/>
      <use x="63.623047" xlink:href="#DejaVuSans-49"/>
     </g>
    </g>
   </g>
   <g id="xtick_7">
    <g id="line2d_9">
     <path d="M 305.795442 215.227337 
L 310.303283 216.21528 
" style="fill:none;stroke:#000000;stroke-linecap:square;stroke-width:0.8;"/>
    </g>
    <g id="text_7">
     <!-- 10 -->
     <g transform="translate(320.752982 227.088534)rotate(-337.5)scale(0.14 -0.14)">
      <use xlink:href="#DejaVuSans-49"/>
      <use x="63.623047" xlink:href="#DejaVuSans-48"/>
     </g>
    </g>
   </g>
   <g id="xtick_8">
    <g id="line2d_10">
     <path d="M 329.701865 197.802852 
L 334.149691 198.753867 
" style="fill:none;stroke:#000000;stroke-linecap:square;stroke-width:0.8;"/>
    </g>
    <g id="text_8">
     <!-- 11 -->
     <g transform="translate(344.39581 209.445312)rotate(-337.5)scale(0.14 -0.14)">
      <use xlink:href="#DejaVuSans-49"/>
      <use x="63.623047" xlink:href="#DejaVuSans-49"/>
     </g>
    </g>
   </g>
  </g>
  <g id="axis3d_3">
   <g id="line2d_11">
    <path d="M 342.911665 189.558191 
L 350.291547 58.381832 
" style="fill:none;stroke:#000000;stroke-linecap:square;stroke-width:0.8;"/>
   </g>
   <g id="text_9">
    <!-- Re[$\rho$] -->
    <defs>
     <path d="M 44.390625 34.1875 
Q 47.5625 33.109375 50.5625 29.59375 
Q 53.5625 26.078125 56.59375 19.921875 
L 66.609375 0 
L 56 0 
L 46.6875 18.703125 
Q 43.0625 26.03125 39.671875 28.421875 
Q 36.28125 30.8125 30.421875 30.8125 
L 19.671875 30.8125 
L 19.671875 0 
L 9.8125 0 
L 9.8125 72.90625 
L 32.078125 72.90625 
Q 44.578125 72.90625 50.734375 67.671875 
Q 56.890625 62.453125 56.890625 51.90625 
Q 56.890625 45.015625 53.6875 40.46875 
Q 50.484375 35.9375 44.390625 34.1875 
z
M 19.671875 64.796875 
L 19.671875 38.921875 
L 32.078125 38.921875 
Q 39.203125 38.921875 42.84375 42.21875 
Q 46.484375 45.515625 46.484375 51.90625 
Q 46.484375 58.296875 42.84375 61.546875 
Q 39.203125 64.796875 32.078125 64.796875 
z
" id="DejaVuSans-82"/>
     <path d="M 56.203125 29.59375 
L 56.203125 25.203125 
L 14.890625 25.203125 
Q 15.484375 15.921875 20.484375 11.0625 
Q 25.484375 6.203125 34.421875 6.203125 
Q 39.59375 6.203125 44.453125 7.46875 
Q 49.3125 8.734375 54.109375 11.28125 
L 54.109375 2.78125 
Q 49.265625 0.734375 44.1875 -0.34375 
Q 39.109375 -1.421875 33.890625 -1.421875 
Q 20.796875 -1.421875 13.15625 6.1875 
Q 5.515625 13.8125 5.515625 26.8125 
Q 5.515625 40.234375 12.765625 48.109375 
Q 20.015625 56 32.328125 56 
Q 43.359375 56 49.78125 48.890625 
Q 56.203125 41.796875 56.203125 29.59375 
z
M 47.21875 32.234375 
Q 47.125 39.59375 43.09375 43.984375 
Q 39.0625 48.390625 32.421875 48.390625 
Q 24.90625 48.390625 20.390625 44.140625 
Q 15.875 39.890625 15.1875 32.171875 
z
" id="DejaVuSans-101"/>
     <path d="M 8.59375 75.984375 
L 29.296875 75.984375 
L 29.296875 69 
L 17.578125 69 
L 17.578125 -6.203125 
L 29.296875 -6.203125 
L 29.296875 -13.1875 
L 8.59375 -13.1875 
z
" id="DejaVuSans-91"/>
     <path d="M 18.796875 44.921875 
Q 22.703125 49.90625 30.953125 54.296875 
Q 34.1875 56 43.0625 56 
Q 53.03125 56 57.71875 48.09375 
Q 62.40625 40.1875 59.90625 27.296875 
Q 57.375 14.40625 49.609375 6.484375 
Q 41.84375 -1.421875 31.890625 -1.421875 
Q 25.875 -1.421875 22.015625 0.984375 
Q 18.171875 3.328125 16.3125 8.203125 
L 10.640625 -20.796875 
L 1.609375 -20.796875 
L 10.890625 26.8125 
Q 13.09375 38.09375 18.796875 44.921875 
z
M 50.59375 27.296875 
Q 52.484375 37.203125 49.515625 42.875 
Q 46.53125 48.484375 39.40625 48.484375 
Q 32.28125 48.484375 27.09375 42.875 
Q 21.921875 37.203125 20.015625 27.296875 
Q 18.0625 17.390625 21.046875 11.71875 
Q 24.03125 6.109375 31.15625 6.109375 
Q 38.28125 6.109375 43.453125 11.71875 
Q 48.640625 17.390625 50.59375 27.296875 
z
" id="DejaVuSans-Oblique-961"/>
     <path d="M 30.421875 75.984375 
L 30.421875 -13.1875 
L 9.71875 -13.1875 
L 9.71875 -6.203125 
L 21.390625 -6.203125 
L 21.390625 69 
L 9.71875 69 
L 9.71875 75.984375 
z
" id="DejaVuSans-93"/>
    </defs>
    <g transform="translate(390.76135 140.975862)rotate(-86.779978)scale(0.14 -0.14)">
     <use transform="translate(0 0.015625)" xlink:href="#DejaVuSans-82"/>
     <use transform="translate(69.482422 0.015625)" xlink:href="#DejaVuSans-101"/>
     <use transform="translate(131.005859 0.015625)" xlink:href="#DejaVuSans-91"/>
     <use transform="translate(170.019531 0.015625)" xlink:href="#DejaVuSans-Oblique-961"/>
     <use transform="translate(233.496094 0.015625)" xlink:href="#DejaVuSans-93"/>
    </g>
   </g>
   <g id="Line3DCollection_3">
    <path d="M 343.728882 175.032273 
L 166.322072 138.174523 
L 56.763413 204.114623 
" style="fill:none;stroke:#b0b0b0;stroke-width:0.8;"/>
    <path d="M 345.104442 150.58189 
L 165.983729 114.409232 
L 55.295369 179.14443 
" style="fill:none;stroke:#b0b0b0;stroke-width:0.8;"/>
    <path d="M 346.507074 125.650296 
L 165.63901 90.196087 
L 53.797462 153.666295 
" style="fill:none;stroke:#b0b0b0;stroke-width:0.8;"/>
    <path d="M 347.937587 100.223144 
L 165.287733 65.522307 
L 52.268772 127.664562 
" style="fill:none;stroke:#b0b0b0;stroke-width:0.8;"/>
    <path d="M 349.396818 74.285511 
L 164.92971 40.374621 
L 50.70834 101.122923 
" style="fill:none;stroke:#b0b0b0;stroke-width:0.8;"/>
   </g>
   <g id="xtick_9">
    <g id="line2d_12">
     <path d="M 342.248382 174.724687 
L 346.692977 175.648088 
" style="fill:none;stroke:#000000;stroke-linecap:square;stroke-width:0.8;"/>
    </g>
    <g id="text_10">
     <!-- −0.4 -->
     <defs>
      <path d="M 10.59375 35.5 
L 73.1875 35.5 
L 73.1875 27.203125 
L 10.59375 27.203125 
z
" id="DejaVuSans-8722"/>
      <path d="M 10.6875 12.40625 
L 21 12.40625 
L 21 0 
L 10.6875 0 
z
" id="DejaVuSans-46"/>
      <path d="M 37.796875 64.3125 
L 12.890625 25.390625 
L 37.796875 25.390625 
z
M 35.203125 72.90625 
L 47.609375 72.90625 
L 47.609375 25.390625 
L 58.015625 25.390625 
L 58.015625 17.1875 
L 47.609375 17.1875 
L 47.609375 0 
L 37.796875 0 
L 37.796875 17.1875 
L 4.890625 17.1875 
L 4.890625 26.703125 
z
" id="DejaVuSans-52"/>
     </defs>
     <g transform="translate(345.500114 183.767932)scale(0.14 -0.14)">
      <use xlink:href="#DejaVuSans-8722"/>
      <use x="83.789062" xlink:href="#DejaVuSans-48"/>
      <use x="147.412109" xlink:href="#DejaVuSans-46"/>
      <use x="179.199219" xlink:href="#DejaVuSans-52"/>
     </g>
    </g>
   </g>
   <g id="xtick_10">
    <g id="line2d_13">
     <path d="M 343.609037 150.279899 
L 348.098409 151.186509 
" style="fill:none;stroke:#000000;stroke-linecap:square;stroke-width:0.8;"/>
    </g>
    <g id="text_11">
     <!-- −0.2 -->
     <defs>
      <path d="M 19.1875 8.296875 
L 53.609375 8.296875 
L 53.609375 0 
L 7.328125 0 
L 7.328125 8.296875 
Q 12.9375 14.109375 22.625 23.890625 
Q 32.328125 33.6875 34.8125 36.53125 
Q 39.546875 41.84375 41.421875 45.53125 
Q 43.3125 49.21875 43.3125 52.78125 
Q 43.3125 58.59375 39.234375 62.25 
Q 35.15625 65.921875 28.609375 65.921875 
Q 23.96875 65.921875 18.8125 64.3125 
Q 13.671875 62.703125 7.8125 59.421875 
L 7.8125 69.390625 
Q 13.765625 71.78125 18.9375 73 
Q 24.125 74.21875 28.421875 74.21875 
Q 39.75 74.21875 46.484375 68.546875 
Q 53.21875 62.890625 53.21875 53.421875 
Q 53.21875 48.921875 51.53125 44.890625 
Q 49.859375 40.875 45.40625 35.40625 
Q 44.1875 33.984375 37.640625 27.21875 
Q 31.109375 20.453125 19.1875 8.296875 
z
" id="DejaVuSans-50"/>
     </defs>
     <g transform="translate(347.055186 159.352185)scale(0.14 -0.14)">
      <use xlink:href="#DejaVuSans-8722"/>
      <use x="83.789062" xlink:href="#DejaVuSans-48"/>
      <use x="147.412109" xlink:href="#DejaVuSans-46"/>
      <use x="179.199219" xlink:href="#DejaVuSans-50"/>
     </g>
    </g>
   </g>
   <g id="xtick_11">
    <g id="line2d_14">
     <path d="M 344.996461 125.354182 
L 349.531521 126.243156 
" style="fill:none;stroke:#000000;stroke-linecap:square;stroke-width:0.8;"/>
    </g>
    <g id="text_12">
     <!-- 0.0 -->
     <g transform="translate(354.506579 134.456965)scale(0.14 -0.14)">
      <use xlink:href="#DejaVuSans-48"/>
      <use x="63.623047" xlink:href="#DejaVuSans-46"/>
      <use x="95.410156" xlink:href="#DejaVuSans-48"/>
     </g>
    </g>
   </g>
   <g id="xtick_12">
    <g id="line2d_15">
     <path d="M 346.411453 99.933201 
L 350.993139 100.803655 
" style="fill:none;stroke:#000000;stroke-linecap:square;stroke-width:0.8;"/>
    </g>
    <g id="text_13">
     <!-- 0.2 -->
     <g transform="translate(356.123637 109.068005)scale(0.14 -0.14)">
      <use xlink:href="#DejaVuSans-48"/>
      <use x="63.623047" xlink:href="#DejaVuSans-46"/>
      <use x="95.410156" xlink:href="#DejaVuSans-50"/>
     </g>
    </g>
   </g>
   <g id="xtick_13">
    <g id="line2d_16">
     <path d="M 347.854842 74.002047 
L 352.484122 74.853055 
" style="fill:none;stroke:#000000;stroke-linecap:square;stroke-width:0.8;"/>
    </g>
    <g id="text_14">
     <!-- 0.4 -->
     <g transform="translate(357.773086 83.170472)scale(0.14 -0.14)">
      <use xlink:href="#DejaVuSans-48"/>
      <use x="63.623047" xlink:href="#DejaVuSans-46"/>
      <use x="95.410156" xlink:href="#DejaVuSans-52"/>
     </g>
    </g>
   </g>
  </g>
  <g id="axes_1">
   <g id="Poly3DCollection_1">
    <path clip-path="url(#p82a5d148fe)" d="M 158.071134 163.99812 
L 179.586381 168.613718 
L 192.238688 160.649935 
L 170.851747 156.117525 
z
" style="fill:#577ddf;"/>
    <path clip-path="url(#p82a5d148fe)" d="M 170.099289 96.142106 
L 170.851747 156.117525 
L 192.238688 160.649935 
L 191.992305 100.46084 
z
" style="fill:#648fff;"/>
    <path clip-path="url(#p82a5d148fe)" d="M 157.005617 103.651868 
L 158.071134 163.99812 
L 170.851747 156.117525 
L 170.099289 96.142106 
z
" style="fill:#324880;"/>
    <path clip-path="url(#p82a5d148fe)" d="M 179.033079 108.051782 
L 191.992305 100.46084 
L 192.238688 160.649935 
L 179.586381 168.613718 
z
" style="fill:#648fff;"/>
    <path clip-path="url(#p82a5d148fe)" d="M 157.005617 103.651868 
L 179.033079 108.051782 
L 179.586381 168.613718 
L 158.071134 163.99812 
z
" style="fill:#324880;"/>
    <path clip-path="url(#p82a5d148fe)" d="M 157.005617 103.651868 
L 170.099289 96.142106 
L 191.992305 100.46084 
L 179.033079 108.051782 
z
" style="fill:#3f599f;"/>
   </g>
   <g id="Poly3DCollection_2">
    <path clip-path="url(#p82a5d148fe)" d="M 214.121508 104.826166 
L 214.121508 104.826166 
L 236.490743 109.238842 
L 236.490743 109.238842 
z
" style="fill:#324880;"/>
    <path clip-path="url(#p82a5d148fe)" d="M 201.300421 112.49961 
L 201.300421 112.49961 
L 214.121508 104.826166 
L 214.121508 104.826166 
z
" style="fill:#324880;"/>
    <path clip-path="url(#p82a5d148fe)" d="M 201.300421 112.49961 
L 214.121508 104.826166 
L 236.490743 109.238842 
L 223.811583 116.996141 
z
" style="fill:#3f599f;"/>
    <path clip-path="url(#p82a5d148fe)" d="M 201.300421 112.49961 
L 223.811583 116.996141 
L 236.490743 109.238842 
L 214.121508 104.826166 
z
" style="fill:#577ddf;"/>
    <path clip-path="url(#p82a5d148fe)" d="M 223.811583 116.996141 
L 236.490743 109.238842 
L 236.490743 109.238842 
L 223.811583 116.996141 
z
" style="fill:#324880;"/>
    <path clip-path="url(#p82a5d148fe)" d="M 201.300421 112.49961 
L 223.811583 116.996141 
L 223.811583 116.996141 
L 201.300421 112.49961 
z
" style="fill:#324880;"/>
   </g>
   <g id="Poly3DCollection_3">
    <path clip-path="url(#p82a5d148fe)" d="M 143.66533 111.303074 
L 143.66533 111.303074 
L 165.828436 115.786477 
L 165.828436 115.786477 
z
" style="fill:#324880;"/>
    <path clip-path="url(#p82a5d148fe)" d="M 130.071394 119.099758 
L 130.071394 119.099758 
L 143.66533 111.303074 
L 143.66533 111.303074 
z
" style="fill:#324880;"/>
    <path clip-path="url(#p82a5d148fe)" d="M 130.071394 119.099758 
L 143.66533 111.303074 
L 165.828436 115.786477 
L 152.371339 123.669049 
z
" style="fill:#3f599f;"/>
    <path clip-path="url(#p82a5d148fe)" d="M 130.071394 119.099758 
L 152.371339 123.669049 
L 165.828436 115.786477 
L 143.66533 111.303074 
z
" style="fill:#577ddf;"/>
    <path clip-path="url(#p82a5d148fe)" d="M 152.371339 123.669049 
L 165.828436 115.786477 
L 165.828436 115.786477 
L 152.371339 123.669049 
z
" style="fill:#324880;"/>
    <path clip-path="url(#p82a5d148fe)" d="M 130.071394 119.099758 
L 152.371339 123.669049 
L 152.371339 123.669049 
L 130.071394 119.099758 
z
" style="fill:#324880;"/>
   </g>
   <g id="Poly3DCollection_4">
    <path clip-path="url(#p82a5d148fe)" d="M 259.103935 113.699642 
L 259.103935 113.699642 
L 281.965099 118.209358 
L 281.965099 118.209358 
z
" style="fill:#324880;"/>
    <path clip-path="url(#p82a5d148fe)" d="M 246.570591 121.542178 
L 246.570591 121.542178 
L 259.103935 113.699642 
L 259.103935 113.699642 
z
" style="fill:#324880;"/>
    <path clip-path="url(#p82a5d148fe)" d="M 246.570591 121.542178 
L 259.103935 113.699642 
L 281.965099 118.209358 
L 269.581562 126.138544 
z
" style="fill:#3f599f;"/>
    <path clip-path="url(#p82a5d148fe)" d="M 246.570591 121.542178 
L 269.581562 126.138544 
L 281.965099 118.209358 
L 259.103935 113.699642 
z
" style="fill:#577ddf;"/>
    <path clip-path="url(#p82a5d148fe)" d="M 269.581562 126.138544 
L 281.965099 118.209358 
L 281.965099 118.209358 
L 269.581562 126.138544 
z
" style="fill:#324880;"/>
    <path clip-path="url(#p82a5d148fe)" d="M 246.570591 121.542178 
L 269.581562 126.138544 
L 269.581562 126.138544 
L 246.570591 121.542178 
z
" style="fill:#324880;"/>
   </g>
   <g id="Poly3DCollection_5">
    <path clip-path="url(#p82a5d148fe)" d="M 188.235198 120.319169 
L 188.235198 120.319169 
L 210.889655 124.901968 
L 210.889655 124.901968 
z
" style="fill:#324880;"/>
    <path clip-path="url(#p82a5d148fe)" d="M 174.9188 128.289057 
L 174.9188 128.289057 
L 188.235198 120.319169 
L 188.235198 120.319169 
z
" style="fill:#324880;"/>
    <path clip-path="url(#p82a5d148fe)" d="M 174.9188 128.289057 
L 188.235198 120.319169 
L 210.889655 124.901968 
L 197.717921 132.960631 
z
" style="fill:#3f599f;"/>
    <path clip-path="url(#p82a5d148fe)" d="M 174.9188 128.289057 
L 197.717921 132.960631 
L 210.889655 124.901968 
L 188.235198 120.319169 
z
" style="fill:#577ddf;"/>
    <path clip-path="url(#p82a5d148fe)" d="M 197.717921 132.960631 
L 210.889655 124.901968 
L 210.889655 124.901968 
L 197.717921 132.960631 
z
" style="fill:#324880;"/>
    <path clip-path="url(#p82a5d148fe)" d="M 174.9188 128.289057 
L 197.717921 132.960631 
L 197.717921 132.960631 
L 174.9188 128.289057 
z
" style="fill:#324880;"/>
   </g>
   <g id="Poly3DCollection_6">
    <path clip-path="url(#p82a5d148fe)" d="M 116.216508 127.046108 
L 116.216508 127.046108 
L 138.654478 131.70378 
L 138.654478 131.70378 
z
" style="fill:#324880;"/>
    <path clip-path="url(#p82a5d148fe)" d="M 102.093083 135.146476 
L 102.093083 135.146476 
L 116.216508 127.046108 
L 116.216508 127.046108 
z
" style="fill:#324880;"/>
    <path clip-path="url(#p82a5d148fe)" d="M 102.093083 135.146476 
L 116.216508 127.046108 
L 138.654478 131.70378 
L 124.670258 139.895118 
z
" style="fill:#3f599f;"/>
    <path clip-path="url(#p82a5d148fe)" d="M 102.093083 135.146476 
L 124.670258 139.895118 
L 138.654478 131.70378 
L 116.216508 127.046108 
z
" style="fill:#577ddf;"/>
    <path clip-path="url(#p82a5d148fe)" d="M 124.670258 139.895118 
L 138.654478 131.70378 
L 138.654478 131.70378 
L 124.670258 139.895118 
z
" style="fill:#324880;"/>
    <path clip-path="url(#p82a5d148fe)" d="M 102.093083 135.146476 
L 124.670258 139.895118 
L 124.670258 139.895118 
L 102.093083 135.146476 
z
" style="fill:#324880;"/>
   </g>
   <g id="Poly3DCollection_7">
    <path clip-path="url(#p82a5d148fe)" d="M 233.795938 129.535709 
L 233.795938 129.535709 
L 256.958268 134.221246 
L 256.958268 134.221246 
z
" style="fill:#324880;"/>
    <path clip-path="url(#p82a5d148fe)" d="M 220.772939 137.684638 
L 220.772939 137.684638 
L 233.795938 129.535709 
L 233.795938 129.535709 
z
" style="fill:#324880;"/>
    <path clip-path="url(#p82a5d148fe)" d="M 220.772939 137.684638 
L 233.795938 129.535709 
L 256.958268 134.221246 
L 244.088186 142.461966 
z
" style="fill:#3f599f;"/>
    <path clip-path="url(#p82a5d148fe)" d="M 220.772939 137.684638 
L 244.088186 142.461966 
L 256.958268 134.221246 
L 233.795938 129.535709 
z
" style="fill:#577ddf;"/>
    <path clip-path="url(#p82a5d148fe)" d="M 244.088186 142.461966 
L 256.958268 134.221246 
L 256.958268 134.221246 
L 244.088186 142.461966 
z
" style="fill:#324880;"/>
    <path clip-path="url(#p82a5d148fe)" d="M 220.772939 137.684638 
L 244.088186 142.461966 
L 244.088186 142.461966 
L 220.772939 137.684638 
z
" style="fill:#324880;"/>
   </g>
   <g id="Poly3DCollection_8">
    <path clip-path="url(#p82a5d148fe)" d="M 161.343913 136.413651 
L 161.343913 136.413651 
L 184.289065 141.176604 
L 184.289065 141.176604 
z
" style="fill:#324880;"/>
    <path clip-path="url(#p82a5d148fe)" d="M 147.502938 144.6975 
L 147.502938 144.6975 
L 161.343913 136.413651 
L 161.343913 136.413651 
z
" style="fill:#324880;"/>
    <path clip-path="url(#p82a5d148fe)" d="M 147.502938 144.6975 
L 161.343913 136.413651 
L 184.289065 141.176604 
L 170.595485 149.55454 
z
" style="fill:#3f599f;"/>
    <path clip-path="url(#p82a5d148fe)" d="M 147.502938 144.6975 
L 170.595485 149.55454 
L 184.289065 141.176604 
L 161.343913 136.413651 
z
" style="fill:#577ddf;"/>
    <path clip-path="url(#p82a5d148fe)" d="M 170.595485 149.55454 
L 184.289065 141.176604 
L 184.289065 141.176604 
L 170.595485 149.55454 
z
" style="fill:#324880;"/>
    <path clip-path="url(#p82a5d148fe)" d="M 147.502938 144.6975 
L 170.595485 149.55454 
L 170.595485 149.55454 
L 147.502938 144.6975 
z
" style="fill:#324880;"/>
   </g>
   <g id="Poly3DCollection_9">
    <path clip-path="url(#p82a5d148fe)" d="M 280.380963 138.959452 
L 280.380963 138.959452 
L 304.068438 143.751221 
L 304.068438 143.751221 
z
" style="fill:#324880;"/>
    <path clip-path="url(#p82a5d148fe)" d="M 267.668093 147.293524 
L 267.668093 147.293524 
L 280.380963 138.959452 
L 280.380963 138.959452 
z
" style="fill:#324880;"/>
    <path clip-path="url(#p82a5d148fe)" d="M 267.668093 147.293524 
L 280.380963 138.959452 
L 304.068438 143.751221 
L 291.517193 152.18024 
z
" style="fill:#3f599f;"/>
    <path clip-path="url(#p82a5d148fe)" d="M 267.668093 147.293524 
L 291.517193 152.18024 
L 304.068438 143.751221 
L 280.380963 138.959452 
z
" style="fill:#577ddf;"/>
    <path clip-path="url(#p82a5d148fe)" d="M 291.517193 152.18024 
L 304.068438 143.751221 
L 304.068438 143.751221 
L 291.517193 152.18024 
z
" style="fill:#324880;"/>
    <path clip-path="url(#p82a5d148fe)" d="M 267.668093 147.293524 
L 291.517193 152.18024 
L 291.517193 152.18024 
L 267.668093 147.293524 
z
" style="fill:#324880;"/>
   </g>
   <g id="Poly3DCollection_10">
    <path clip-path="url(#p82a5d148fe)" d="M 292.848702 130.786079 
L 305.078334 122.7688 
L 328.447833 127.378793 
L 316.376315 135.485642 
z
" style="fill:#3f599f;"/>
    <path clip-path="url(#p82a5d148fe)" d="M 305.078334 122.7688 
L 307.653873 58.414879 
L 331.628503 62.775585 
L 328.447833 127.378793 
z
" style="fill:#324880;"/>
    <path clip-path="url(#p82a5d148fe)" d="M 292.848702 130.786079 
L 295.139398 65.999401 
L 307.653873 58.414879 
L 305.078334 122.7688 
z
" style="fill:#648fff;"/>
    <path clip-path="url(#p82a5d148fe)" d="M 316.376315 135.485642 
L 328.447833 127.378793 
L 331.628503 62.775585 
L 319.280557 70.447 
z
" style="fill:#324880;"/>
    <path clip-path="url(#p82a5d148fe)" d="M 292.848702 130.786079 
L 316.376315 135.485642 
L 319.280557 70.447 
L 295.139398 65.999401 
z
" style="fill:#648fff;"/>
    <path clip-path="url(#p82a5d148fe)" d="M 295.139398 65.999401 
L 319.280557 70.447 
L 331.628503 62.775585 
L 307.653873 58.414879 
z
" style="fill:#577ddf;"/>
   </g>
   <g id="Poly3DCollection_11">
    <path clip-path="url(#p82a5d148fe)" d="M 207.494281 145.993541 
L 207.494281 145.993541 
L 230.964007 150.865385 
L 230.964007 150.865385 
z
" style="fill:#324880;"/>
    <path clip-path="url(#p82a5d148fe)" d="M 193.952361 154.467176 
L 193.952361 154.467176 
L 207.494281 145.993541 
L 207.494281 145.993541 
z
" style="fill:#324880;"/>
    <path clip-path="url(#p82a5d148fe)" d="M 193.952361 154.467176 
L 217.578131 159.436368 
L 230.964007 150.865385 
L 207.494281 145.993541 
z
" style="fill:#577ddf;"/>
    <path clip-path="url(#p82a5d148fe)" d="M 193.952361 154.467176 
L 207.494281 145.993541 
L 230.964007 150.865385 
L 217.578131 159.436368 
z
" style="fill:#3f599f;"/>
    <path clip-path="url(#p82a5d148fe)" d="M 217.578131 159.436368 
L 230.964007 150.865385 
L 230.964007 150.865385 
L 217.578131 159.436368 
z
" style="fill:#324880;"/>
    <path clip-path="url(#p82a5d148fe)" d="M 193.952361 154.467176 
L 217.578131 159.436368 
L 217.578131 159.436368 
L 193.952361 154.467176 
z
" style="fill:#324880;"/>
   </g>
   <g id="Poly3DCollection_12">
    <path clip-path="url(#p82a5d148fe)" d="M 133.387972 153.145333 
L 133.387972 153.145333 
L 156.629275 158.099275 
L 156.629275 158.099275 
z
" style="fill:#324880;"/>
    <path clip-path="url(#p82a5d148fe)" d="M 118.990799 161.762066 
L 118.990799 161.762066 
L 133.387972 153.145333 
L 133.387972 153.145333 
z
" style="fill:#324880;"/>
    <path clip-path="url(#p82a5d148fe)" d="M 118.990799 161.762066 
L 133.387972 153.145333 
L 156.629275 158.099275 
L 142.38221 166.815841 
z
" style="fill:#3f599f;"/>
    <path clip-path="url(#p82a5d148fe)" d="M 118.990799 161.762066 
L 142.38221 166.815841 
L 156.629275 158.099275 
L 133.387972 153.145333 
z
" style="fill:#577ddf;"/>
    <path clip-path="url(#p82a5d148fe)" d="M 142.38221 166.815841 
L 156.629275 158.099275 
L 156.629275 158.099275 
L 142.38221 166.815841 
z
" style="fill:#324880;"/>
    <path clip-path="url(#p82a5d148fe)" d="M 118.990799 161.762066 
L 142.38221 166.815841 
L 142.38221 166.815841 
L 118.990799 161.762066 
z
" style="fill:#324880;"/>
   </g>
   <g id="Poly3DCollection_13">
    <path clip-path="url(#p82a5d148fe)" d="M 254.702792 155.79308 
L 254.702792 155.79308 
L 278.715289 160.777592 
L 278.715289 160.777592 
z
" style="fill:#324880;"/>
    <path clip-path="url(#p82a5d148fe)" d="M 241.477465 164.463099 
L 241.477465 164.463099 
L 254.702792 155.79308 
L 254.702792 155.79308 
z
" style="fill:#324880;"/>
    <path clip-path="url(#p82a5d148fe)" d="M 241.477465 164.463099 
L 254.702792 155.79308 
L 278.715289 160.777592 
L 265.655142 169.548373 
z
" style="fill:#3f599f;"/>
    <path clip-path="url(#p82a5d148fe)" d="M 241.477465 164.463099 
L 265.655142 169.548373 
L 278.715289 160.777592 
L 254.702792 155.79308 
z
" style="fill:#577ddf;"/>
    <path clip-path="url(#p82a5d148fe)" d="M 265.655142 169.548373 
L 278.715289 160.777592 
L 278.715289 160.777592 
L 265.655142 169.548373 
z
" style="fill:#324880;"/>
    <path clip-path="url(#p82a5d148fe)" d="M 241.477465 164.463099 
L 265.655142 169.548373 
L 265.655142 169.548373 
L 241.477465 164.463099 
z
" style="fill:#324880;"/>
   </g>
   <g id="Poly3DCollection_14">
    <path clip-path="url(#p82a5d148fe)" d="M 180.139273 163.110491 
L 180.139273 163.110491 
L 203.922652 168.179979 
L 203.922652 168.179979 
z
" style="fill:#324880;"/>
    <path clip-path="url(#p82a5d148fe)" d="M 166.046787 171.928634 
L 166.046787 171.928634 
L 180.139273 163.110491 
L 180.139273 163.110491 
z
" style="fill:#324880;"/>
    <path clip-path="url(#p82a5d148fe)" d="M 166.046787 171.928634 
L 180.139273 163.110491 
L 203.922652 168.179979 
L 189.989343 177.101484 
z
" style="fill:#3f599f;"/>
    <path clip-path="url(#p82a5d148fe)" d="M 166.046787 171.928634 
L 189.989343 177.101484 
L 203.922652 168.179979 
L 180.139273 163.110491 
z
" style="fill:#577ddf;"/>
    <path clip-path="url(#p82a5d148fe)" d="M 189.989343 177.101484 
L 203.922652 168.179979 
L 203.922652 168.179979 
L 189.989343 177.101484 
z
" style="fill:#324880;"/>
    <path clip-path="url(#p82a5d148fe)" d="M 166.046787 171.928634 
L 189.989343 177.101484 
L 189.989343 177.101484 
L 166.046787 171.928634 
z
" style="fill:#324880;"/>
   </g>
   <g id="Poly3DCollection_15">
    <path clip-path="url(#p82a5d148fe)" d="M 73.008771 151.827531 
L 87.693235 143.405384 
L 110.410785 148.247687 
L 95.867851 156.766294 
z
" style="fill:#3f599f;"/>
    <path clip-path="url(#p82a5d148fe)" d="M 87.693235 143.405384 
L 84.733544 77.944989 
L 108.022556 82.531192 
L 110.410785 148.247687 
z
" style="fill:#324880;"/>
    <path clip-path="url(#p82a5d148fe)" d="M 73.008771 151.827531 
L 69.636896 85.922569 
L 84.733544 77.944989 
L 87.693235 143.405384 
z
" style="fill:#648fff;"/>
    <path clip-path="url(#p82a5d148fe)" d="M 95.867851 156.766294 
L 110.410785 148.247687 
L 108.022556 82.531192 
L 93.074545 90.602527 
z
" style="fill:#324880;"/>
    <path clip-path="url(#p82a5d148fe)" d="M 73.008771 151.827531 
L 95.867851 156.766294 
L 93.074545 90.602527 
L 69.636896 85.922569 
z
" style="fill:#648fff;"/>
    <path clip-path="url(#p82a5d148fe)" d="M 69.636896 85.922569 
L 93.074545 90.602527 
L 108.022556 82.531192 
L 84.733544 77.944989 
z
" style="fill:#577ddf;"/>
   </g>
   <g id="Poly3DCollection_16">
    <path clip-path="url(#p82a5d148fe)" d="M 213.916748 246.362721 
L 237.797442 251.893306 
L 251.060712 242.354251 
L 227.340183 236.93264 
z
" style="fill:#577ddf;"/>
    <path clip-path="url(#p82a5d148fe)" d="M 227.984211 173.308761 
L 227.340183 236.93264 
L 251.060712 242.354251 
L 252.328857 178.497884 
z
" style="fill:#648fff;"/>
    <path clip-path="url(#p82a5d148fe)" d="M 214.214804 182.335458 
L 213.916748 246.362721 
L 227.340183 236.93264 
L 227.984211 173.308761 
z
" style="fill:#324880;"/>
    <path clip-path="url(#p82a5d148fe)" d="M 238.728216 187.631643 
L 252.328857 178.497884 
L 251.060712 242.354251 
L 237.797442 251.893306 
z
" style="fill:#648fff;"/>
    <path clip-path="url(#p82a5d148fe)" d="M 214.214804 182.335458 
L 238.728216 187.631643 
L 237.797442 251.893306 
L 213.916748 246.362721 
z
" style="fill:#324880;"/>
    <path clip-path="url(#p82a5d148fe)" d="M 214.214804 182.335458 
L 227.984211 173.308761 
L 252.328857 178.497884 
L 238.728216 187.631643 
z
" style="fill:#3f599f;"/>
   </g>
   <g id="Poly3DCollection_17">
    <path clip-path="url(#p82a5d148fe)" d="M 59.844142 153.087552 
L 242.571516 192.755164 
L 340.839363 126.192768 
L 167.033695 92.055348 
z
" style="fill-opacity:0.15;"/>
   </g>
  </g>
  <g id="patch_6">
   <path d="M 463.745455 279 
L 844.2 279 
L 844.2 7.2 
L 463.745455 7.2 
z
" style="fill:#ffffff;"/>
  </g>
  <g id="pane3d_4">
   <g id="patch_7">
    <path d="M 514.180584 218.941779 
L 623.068665 152.302577 
L 621.255794 24.966001 
L 506.296488 84.839953 
" style="fill:#f2f2f2;opacity:0.5;stroke:#f2f2f2;stroke-linejoin:miter;"/>
   </g>
  </g>
  <g id="pane3d_5">
   <g id="patch_8">
    <path d="M 623.068665 152.302577 
L 799.45712 189.558191 
L 806.837001 58.381832 
L 621.255794 24.966001 
" style="fill:#e6e6e6;opacity:0.5;stroke:#e6e6e6;stroke-linejoin:miter;"/>
   </g>
  </g>
  <g id="pane3d_6">
   <g id="patch_9">
    <path d="M 514.180584 218.941779 
L 699.765072 262.332012 
L 799.45712 189.558191 
L 623.068665 152.302577 
" style="fill:#ececec;opacity:0.5;stroke:#ececec;stroke-linejoin:miter;"/>
   </g>
  </g>
  <g id="axis3d_4">
   <g id="line2d_17">
    <path d="M 514.180584 218.941779 
L 699.765072 262.332012 
" style="fill:none;stroke:#000000;stroke-linecap:square;stroke-width:0.8;"/>
   </g>
   <g id="Line3DCollection_4">
    <path d="M 536.641271 224.193158 
L 644.479397 156.824812 
L 643.7393 29.01439 
" style="fill:none;stroke:#b0b0b0;stroke-width:0.8;"/>
    <path d="M 581.857792 234.764921 
L 687.529469 165.917566 
L 688.982353 37.160874 
" style="fill:none;stroke:#b0b0b0;stroke-width:0.8;"/>
    <path d="M 628.110744 245.579006 
L 731.493551 175.203371 
L 735.235637 45.48926 
" style="fill:none;stroke:#b0b0b0;stroke-width:0.8;"/>
    <path d="M 675.436176 256.64384 
L 776.401063 184.688442 
L 782.533372 54.00571 
" style="fill:none;stroke:#b0b0b0;stroke-width:0.8;"/>
   </g>
   <g id="xtick_14">
    <g id="line2d_18">
     <path d="M 537.570538 223.612629 
L 534.779262 225.356387 
" style="fill:none;stroke:#000000;stroke-linecap:square;stroke-width:0.8;"/>
    </g>
    <g id="text_15">
     <!-- 00 -->
     <g transform="translate(514.533263 257.893301)rotate(-45)scale(0.14 -0.14)">
      <use xlink:href="#DejaVuSans-48"/>
      <use x="63.623047" xlink:href="#DejaVuSans-48"/>
     </g>
    </g>
   </g>
   <g id="xtick_15">
    <g id="line2d_19">
     <path d="M 582.769128 234.171166 
L 580.031671 235.954678 
" style="fill:none;stroke:#000000;stroke-linecap:square;stroke-width:0.8;"/>
    </g>
    <g id="text_16">
     <!-- 01 -->
     <g transform="translate(559.745653 268.638035)rotate(-45)scale(0.14 -0.14)">
      <use xlink:href="#DejaVuSans-48"/>
      <use x="63.623047" xlink:href="#DejaVuSans-49"/>
     </g>
    </g>
   </g>
   <g id="xtick_16">
    <g id="line2d_20">
     <path d="M 629.00308 244.971567 
L 626.322658 246.796207 
" style="fill:none;stroke:#000000;stroke-linecap:square;stroke-width:0.8;"/>
    </g>
    <g id="text_17">
     <!-- 10 -->
     <g transform="translate(605.996245 279.629498)rotate(-45)scale(0.14 -0.14)">
      <use xlink:href="#DejaVuSans-49"/>
      <use x="63.623047" xlink:href="#DejaVuSans-48"/>
     </g>
    </g>
   </g>
   <g id="xtick_17">
    <g id="line2d_21">
     <path d="M 676.30838 256.022239 
L 673.688391 257.889447 
" style="fill:none;stroke:#000000;stroke-linecap:square;stroke-width:0.8;"/>
    </g>
    <g id="text_18">
     <!-- 11 -->
     <g transform="translate(653.321215 290.876286)rotate(-45)scale(0.14 -0.14)">
      <use xlink:href="#DejaVuSans-49"/>
      <use x="63.623047" xlink:href="#DejaVuSans-49"/>
     </g>
    </g>
   </g>
  </g>
  <g id="axis3d_5">
   <g id="line2d_22">
    <path d="M 799.45712 189.558191 
L 699.765072 262.332012 
" style="fill:none;stroke:#000000;stroke-linecap:square;stroke-width:0.8;"/>
   </g>
   <g id="Line3DCollection_5">
    <path d="M 521.800685 76.764943 
L 528.816499 209.98464 
L 713.203872 252.521872 
" style="fill:none;stroke:#b0b0b0;stroke-width:0.8;"/>
    <path d="M 551.577478 61.256374 
L 556.968861 192.755472 
L 739.019492 233.676826 
" style="fill:none;stroke:#b0b0b0;stroke-width:0.8;"/>
    <path d="M 580.201344 46.348282 
L 584.084836 176.160572 
L 763.84244 215.556417 
" style="fill:none;stroke:#b0b0b0;stroke-width:0.8;"/>
    <path d="M 607.737971 32.006453 
L 610.220618 160.165546 
L 787.728893 198.119635 
" style="fill:none;stroke:#b0b0b0;stroke-width:0.8;"/>
   </g>
   <g id="xtick_18">
    <g id="line2d_23">
     <path d="M 711.661052 252.165952 
L 716.292943 253.234505 
" style="fill:none;stroke:#000000;stroke-linecap:square;stroke-width:0.8;"/>
    </g>
    <g id="text_19">
     <!-- 00 -->
     <g transform="translate(727.177722 264.490613)rotate(-337.5)scale(0.14 -0.14)">
      <use xlink:href="#DejaVuSans-48"/>
      <use x="63.623047" xlink:href="#DejaVuSans-48"/>
     </g>
    </g>
   </g>
   <g id="xtick_19">
    <g id="line2d_24">
     <path d="M 737.497534 233.334721 
L 742.066725 234.361784 
" style="fill:none;stroke:#000000;stroke-linecap:square;stroke-width:0.8;"/>
    </g>
    <g id="text_20">
     <!-- 01 -->
     <g transform="translate(752.729106 245.42315)rotate(-337.5)scale(0.14 -0.14)">
      <use xlink:href="#DejaVuSans-48"/>
      <use x="63.623047" xlink:href="#DejaVuSans-49"/>
     </g>
    </g>
   </g>
   <g id="xtick_20">
    <g id="line2d_25">
     <path d="M 762.340896 215.227337 
L 766.848738 216.21528 
" style="fill:none;stroke:#000000;stroke-linecap:square;stroke-width:0.8;"/>
    </g>
    <g id="text_21">
     <!-- 10 -->
     <g transform="translate(777.298437 227.088534)rotate(-337.5)scale(0.14 -0.14)">
      <use xlink:href="#DejaVuSans-49"/>
      <use x="63.623047" xlink:href="#DejaVuSans-48"/>
     </g>
    </g>
   </g>
   <g id="xtick_21">
    <g id="line2d_26">
     <path d="M 786.24732 197.802852 
L 790.695146 198.753867 
" style="fill:none;stroke:#000000;stroke-linecap:square;stroke-width:0.8;"/>
    </g>
    <g id="text_22">
     <!-- 11 -->
     <g transform="translate(800.941264 209.445312)rotate(-337.5)scale(0.14 -0.14)">
      <use xlink:href="#DejaVuSans-49"/>
      <use x="63.623047" xlink:href="#DejaVuSans-49"/>
     </g>
    </g>
   </g>
  </g>
  <g id="axis3d_6">
   <g id="line2d_27">
    <path d="M 799.45712 189.558191 
L 806.837001 58.381832 
" style="fill:none;stroke:#000000;stroke-linecap:square;stroke-width:0.8;"/>
   </g>
   <g id="text_23">
    <!-- Im[$\rho$] -->
    <defs>
     <path d="M 9.8125 72.90625 
L 19.671875 72.90625 
L 19.671875 0 
L 9.8125 0 
z
" id="DejaVuSans-73"/>
     <path d="M 52 44.1875 
Q 55.375 50.25 60.0625 53.125 
Q 64.75 56 71.09375 56 
Q 79.640625 56 84.28125 50.015625 
Q 88.921875 44.046875 88.921875 33.015625 
L 88.921875 0 
L 79.890625 0 
L 79.890625 32.71875 
Q 79.890625 40.578125 77.09375 44.375 
Q 74.3125 48.1875 68.609375 48.1875 
Q 61.625 48.1875 57.5625 43.546875 
Q 53.515625 38.921875 53.515625 30.90625 
L 53.515625 0 
L 44.484375 0 
L 44.484375 32.71875 
Q 44.484375 40.625 41.703125 44.40625 
Q 38.921875 48.1875 33.109375 48.1875 
Q 26.21875 48.1875 22.15625 43.53125 
Q 18.109375 38.875 18.109375 30.90625 
L 18.109375 0 
L 9.078125 0 
L 9.078125 54.6875 
L 18.109375 54.6875 
L 18.109375 46.1875 
Q 21.1875 51.21875 25.484375 53.609375 
Q 29.78125 56 35.6875 56 
Q 41.65625 56 45.828125 52.96875 
Q 50 49.953125 52 44.1875 
z
" id="DejaVuSans-109"/>
    </defs>
    <g transform="translate(847.322532 140.696304)rotate(-86.779978)scale(0.14 -0.14)">
     <use transform="translate(0 0.015625)" xlink:href="#DejaVuSans-73"/>
     <use transform="translate(29.445312 0.015625)" xlink:href="#DejaVuSans-109"/>
     <use transform="translate(126.857422 0.015625)" xlink:href="#DejaVuSans-91"/>
     <use transform="translate(165.871094 0.015625)" xlink:href="#DejaVuSans-Oblique-961"/>
     <use transform="translate(229.347656 0.015625)" xlink:href="#DejaVuSans-93"/>
    </g>
   </g>
   <g id="Line3DCollection_6">
    <path d="M 799.597484 187.063236 
L 623.034111 149.875474 
L 514.030882 216.395485 
" style="fill:none;stroke:#b0b0b0;stroke-width:0.8;"/>
   </g>
   <g id="xtick_22">
    <g id="line2d_28">
     <path d="M 798.124315 186.752958 
L 802.546887 187.684439 
" style="fill:none;stroke:#000000;stroke-linecap:square;stroke-width:0.8;"/>
    </g>
    <g id="text_24">
     <!-- 0 -->
     <g transform="translate(813.82458 195.782228)scale(0.14 -0.14)">
      <use xlink:href="#DejaVuSans-48"/>
     </g>
    </g>
   </g>
  </g>
  <g id="axes_2">
   <g id="Poly3DCollection_18">
    <path clip-path="url(#pbebdad1afa)" d="M 627.397202 156.117525 
L 627.397202 156.117525 
L 648.784142 160.649935 
L 648.784142 160.649935 
z
" style="fill:#324880;"/>
    <path clip-path="url(#pbebdad1afa)" d="M 614.616589 163.99812 
L 614.616589 163.99812 
L 627.397202 156.117525 
L 627.397202 156.117525 
z
" style="fill:#324880;"/>
    <path clip-path="url(#pbebdad1afa)" d="M 614.616589 163.99812 
L 627.397202 156.117525 
L 648.784142 160.649935 
L 636.131835 168.613718 
z
" style="fill:#324880;"/>
    <path clip-path="url(#pbebdad1afa)" d="M 614.616589 163.99812 
L 636.131835 168.613718 
L 648.784142 160.649935 
L 627.397202 156.117525 
z
" style="fill:#648fff;"/>
    <path clip-path="url(#pbebdad1afa)" d="M 636.131835 168.613718 
L 648.784142 160.649935 
L 648.784142 160.649935 
L 636.131835 168.613718 
z
" style="fill:#324880;"/>
    <path clip-path="url(#pbebdad1afa)" d="M 614.616589 163.99812 
L 636.131835 168.613718 
L 636.131835 168.613718 
L 614.616589 163.99812 
z
" style="fill:#324880;"/>
   </g>
   <g id="Poly3DCollection_19">
    <path clip-path="url(#pbebdad1afa)" d="M 670.396408 165.230096 
L 670.396408 165.230096 
L 692.237579 169.858769 
L 692.237579 169.858769 
z
" style="fill:#324880;"/>
    <path clip-path="url(#pbebdad1afa)" d="M 657.875847 173.278393 
L 657.875847 173.278393 
L 670.396408 165.230096 
L 670.396408 165.230096 
z
" style="fill:#324880;"/>
    <path clip-path="url(#pbebdad1afa)" d="M 657.875847 173.278393 
L 670.396408 165.230096 
L 692.237579 169.858769 
L 679.85229 177.992931 
z
" style="fill:#324880;"/>
    <path clip-path="url(#pbebdad1afa)" d="M 657.875847 173.278393 
L 679.85229 177.992931 
L 692.237579 169.858769 
L 670.396408 165.230096 
z
" style="fill:#648fff;"/>
    <path clip-path="url(#pbebdad1afa)" d="M 679.85229 177.992931 
L 692.237579 169.858769 
L 692.237579 169.858769 
L 679.85229 177.992931 
z
" style="fill:#324880;"/>
    <path clip-path="url(#pbebdad1afa)" d="M 657.875847 173.278393 
L 679.85229 177.992931 
L 679.85229 177.992931 
L 657.875847 173.278393 
z
" style="fill:#324880;"/>
   </g>
   <g id="Poly3DCollection_20">
    <path clip-path="url(#pbebdad1afa)" d="M 601.600939 172.02364 
L 601.600939 172.02364 
L 623.245609 176.724738 
L 623.245609 176.724738 
z
" style="fill:#324880;"/>
    <path clip-path="url(#pbebdad1afa)" d="M 588.343708 180.19812 
L 588.343708 180.19812 
L 601.600939 172.02364 
L 601.600939 172.02364 
z
" style="fill:#324880;"/>
    <path clip-path="url(#pbebdad1afa)" d="M 588.343708 180.19812 
L 601.600939 172.02364 
L 623.245609 176.724738 
L 610.118916 184.987116 
z
" style="fill:#324880;"/>
    <path clip-path="url(#pbebdad1afa)" d="M 588.343708 180.19812 
L 610.118916 184.987116 
L 623.245609 176.724738 
L 601.600939 172.02364 
z
" style="fill:#648fff;"/>
    <path clip-path="url(#pbebdad1afa)" d="M 610.118916 184.987116 
L 623.245609 176.724738 
L 623.245609 176.724738 
L 610.118916 184.987116 
z
" style="fill:#324880;"/>
    <path clip-path="url(#pbebdad1afa)" d="M 588.343708 180.19812 
L 610.118916 184.987116 
L 610.118916 184.987116 
L 588.343708 180.19812 
z
" style="fill:#324880;"/>
   </g>
   <g id="Poly3DCollection_21">
    <path clip-path="url(#pbebdad1afa)" d="M 714.311311 174.536726 
L 714.311311 174.536726 
L 736.621339 179.26476 
L 736.621339 179.26476 
z
" style="fill:#324880;"/>
    <path clip-path="url(#pbebdad1afa)" d="M 702.064913 182.758135 
L 702.064913 182.758135 
L 714.311311 174.536726 
L 714.311311 174.536726 
z
" style="fill:#324880;"/>
    <path clip-path="url(#pbebdad1afa)" d="M 702.064913 182.758135 
L 714.311311 174.536726 
L 736.621339 179.26476 
L 724.517543 187.574827 
z
" style="fill:#324880;"/>
    <path clip-path="url(#pbebdad1afa)" d="M 702.064913 182.758135 
L 724.517543 187.574827 
L 736.621339 179.26476 
L 714.311311 174.536726 
z
" style="fill:#648fff;"/>
    <path clip-path="url(#pbebdad1afa)" d="M 724.517543 187.574827 
L 736.621339 179.26476 
L 736.621339 179.26476 
L 724.517543 187.574827 
z
" style="fill:#324880;"/>
    <path clip-path="url(#pbebdad1afa)" d="M 702.064913 182.758135 
L 724.517543 187.574827 
L 724.517543 187.574827 
L 702.064913 182.758135 
z
" style="fill:#324880;"/>
   </g>
   <g id="Poly3DCollection_22">
    <path clip-path="url(#pbebdad1afa)" d="M 645.122559 181.476287 
L 645.122559 181.476287 
L 667.235548 186.279102 
L 667.235548 186.279102 
z
" style="fill:#324880;"/>
    <path clip-path="url(#pbebdad1afa)" d="M 632.129997 189.827989 
L 632.129997 189.827989 
L 645.122559 181.476287 
L 645.122559 181.476287 
z
" style="fill:#324880;"/>
    <path clip-path="url(#pbebdad1afa)" d="M 632.129997 189.827989 
L 645.122559 181.476287 
L 667.235548 186.279102 
L 654.380803 194.721583 
z
" style="fill:#324880;"/>
    <path clip-path="url(#pbebdad1afa)" d="M 632.129997 189.827989 
L 654.380803 194.721583 
L 667.235548 186.279102 
L 645.122559 181.476287 
z
" style="fill:#648fff;"/>
    <path clip-path="url(#pbebdad1afa)" d="M 654.380803 194.721583 
L 667.235548 186.279102 
L 667.235548 186.279102 
L 654.380803 194.721583 
z
" style="fill:#324880;"/>
    <path clip-path="url(#pbebdad1afa)" d="M 632.129997 189.827989 
L 654.380803 194.721583 
L 654.380803 194.721583 
L 632.129997 189.827989 
z
" style="fill:#324880;"/>
   </g>
   <g id="Poly3DCollection_23">
    <path clip-path="url(#pbebdad1afa)" d="M 759.171476 184.04368 
L 759.171476 184.04368 
L 781.965621 188.87431 
L 781.965621 188.87431 
z
" style="fill:#324880;"/>
    <path clip-path="url(#pbebdad1afa)" d="M 747.214092 192.443847 
L 747.214092 192.443847 
L 759.171476 184.04368 
L 759.171476 184.04368 
z
" style="fill:#324880;"/>
    <path clip-path="url(#pbebdad1afa)" d="M 747.214092 192.443847 
L 759.171476 184.04368 
L 781.965621 188.87431 
L 770.158555 197.366051 
z
" style="fill:#324880;"/>
    <path clip-path="url(#pbebdad1afa)" d="M 747.214092 192.443847 
L 770.158555 197.366051 
L 781.965621 188.87431 
L 759.171476 184.04368 
z
" style="fill:#648fff;"/>
    <path clip-path="url(#pbebdad1afa)" d="M 770.158555 197.366051 
L 781.965621 188.87431 
L 781.965621 188.87431 
L 770.158555 197.366051 
z
" style="fill:#324880;"/>
    <path clip-path="url(#pbebdad1afa)" d="M 747.214092 192.443847 
L 770.158555 197.366051 
L 770.158555 197.366051 
L 747.214092 192.443847 
z
" style="fill:#324880;"/>
   </g>
   <g id="Poly3DCollection_24">
    <path clip-path="url(#pbebdad1afa)" d="M 574.838107 188.525745 
L 574.838107 188.525745 
L 596.744962 193.405129 
L 596.744962 193.405129 
z
" style="fill:#324880;"/>
    <path clip-path="url(#pbebdad1afa)" d="M 561.077092 197.010862 
L 561.077092 197.010862 
L 574.838107 188.525745 
L 574.838107 188.525745 
z
" style="fill:#324880;"/>
    <path clip-path="url(#pbebdad1afa)" d="M 561.077092 197.010862 
L 574.838107 188.525745 
L 596.744962 193.405129 
L 583.116693 201.983215 
z
" style="fill:#324880;"/>
    <path clip-path="url(#pbebdad1afa)" d="M 561.077092 197.010862 
L 583.116693 201.983215 
L 596.744962 193.405129 
L 574.838107 188.525745 
z
" style="fill:#648fff;"/>
    <path clip-path="url(#pbebdad1afa)" d="M 583.116693 201.983215 
L 596.744962 193.405129 
L 596.744962 193.405129 
L 583.116693 201.983215 
z
" style="fill:#324880;"/>
    <path clip-path="url(#pbebdad1afa)" d="M 561.077092 197.010862 
L 583.116693 201.983215 
L 583.116693 201.983215 
L 561.077092 197.010862 
z
" style="fill:#324880;"/>
   </g>
   <g id="Poly3DCollection_25">
    <path clip-path="url(#pbebdad1afa)" d="M 689.588416 191.134017 
L 689.588416 191.134017 
L 712.185088 196.041885 
L 712.185088 196.041885 
z
" style="fill:#324880;"/>
    <path clip-path="url(#pbebdad1afa)" d="M 676.875274 199.668767 
L 676.875274 199.668767 
L 689.588416 191.134017 
L 689.588416 191.134017 
z
" style="fill:#324880;"/>
    <path clip-path="url(#pbebdad1afa)" d="M 676.875274 199.668767 
L 689.588416 191.134017 
L 712.185088 196.041885 
L 699.617432 204.670424 
z
" style="fill:#324880;"/>
    <path clip-path="url(#pbebdad1afa)" d="M 676.875274 199.668767 
L 699.617432 204.670424 
L 712.185088 196.041885 
L 689.588416 191.134017 
z
" style="fill:#648fff;"/>
    <path clip-path="url(#pbebdad1afa)" d="M 699.617432 204.670424 
L 712.185088 196.041885 
L 712.185088 196.041885 
L 699.617432 204.670424 
z
" style="fill:#324880;"/>
    <path clip-path="url(#pbebdad1afa)" d="M 676.875274 199.668767 
L 699.617432 204.670424 
L 699.617432 204.670424 
L 676.875274 199.668767 
z
" style="fill:#324880;"/>
   </g>
   <g id="Poly3DCollection_26">
    <path clip-path="url(#pbebdad1afa)" d="M 618.891362 198.337867 
L 618.891362 198.337867 
L 641.281258 203.32484 
L 641.281258 203.32484 
z
" style="fill:#324880;"/>
    <path clip-path="url(#pbebdad1afa)" d="M 605.399596 207.01046 
L 605.399596 207.01046 
L 618.891362 198.337867 
L 618.891362 198.337867 
z
" style="fill:#324880;"/>
    <path clip-path="url(#pbebdad1afa)" d="M 605.399596 207.01046 
L 618.891362 198.337867 
L 641.281258 203.32484 
L 627.929852 212.093509 
z
" style="fill:#324880;"/>
    <path clip-path="url(#pbebdad1afa)" d="M 605.399596 207.01046 
L 627.929852 212.093509 
L 641.281258 203.32484 
L 618.891362 198.337867 
z
" style="fill:#648fff;"/>
    <path clip-path="url(#pbebdad1afa)" d="M 627.929852 212.093509 
L 641.281258 203.32484 
L 641.281258 203.32484 
L 627.929852 212.093509 
z
" style="fill:#324880;"/>
    <path clip-path="url(#pbebdad1afa)" d="M 605.399596 207.01046 
L 627.929852 212.093509 
L 627.929852 212.093509 
L 605.399596 207.01046 
z
" style="fill:#324880;"/>
   </g>
   <g id="Poly3DCollection_27">
    <path clip-path="url(#pbebdad1afa)" d="M 735.029575 201.003577 
L 735.029575 201.003577 
L 758.125975 206.019983 
L 758.125975 206.019983 
z
" style="fill:#324880;"/>
    <path clip-path="url(#pbebdad1afa)" d="M 722.611391 209.727459 
L 722.611391 209.727459 
L 735.029575 201.003577 
L 735.029575 201.003577 
z
" style="fill:#324880;"/>
    <path clip-path="url(#pbebdad1afa)" d="M 722.611391 209.727459 
L 735.029575 201.003577 
L 758.125975 206.019983 
L 745.861358 214.840798 
z
" style="fill:#324880;"/>
    <path clip-path="url(#pbebdad1afa)" d="M 722.611391 209.727459 
L 745.861358 214.840798 
L 758.125975 206.019983 
L 735.029575 201.003577 
z
" style="fill:#648fff;"/>
    <path clip-path="url(#pbebdad1afa)" d="M 745.861358 214.840798 
L 758.125975 206.019983 
L 758.125975 206.019983 
L 745.861358 214.840798 
z
" style="fill:#324880;"/>
    <path clip-path="url(#pbebdad1afa)" d="M 722.611391 209.727459 
L 745.861358 214.840798 
L 745.861358 214.840798 
L 722.611391 209.727459 
z
" style="fill:#324880;"/>
   </g>
   <g id="Poly3DCollection_28">
    <path clip-path="url(#pbebdad1afa)" d="M 547.053346 205.657979 
L 547.053346 205.657979 
L 569.226788 210.725985 
L 569.226788 210.725985 
z
" style="fill:#324880;"/>
    <path clip-path="url(#pbebdad1afa)" d="M 532.759274 214.471781 
L 532.759274 214.471781 
L 547.053346 205.657979 
L 547.053346 205.657979 
z
" style="fill:#324880;"/>
    <path clip-path="url(#pbebdad1afa)" d="M 532.759274 214.471781 
L 547.053346 205.657979 
L 569.226788 210.725985 
L 555.067637 219.638226 
z
" style="fill:#324880;"/>
    <path clip-path="url(#pbebdad1afa)" d="M 532.759274 214.471781 
L 555.067637 219.638226 
L 569.226788 210.725985 
L 547.053346 205.657979 
z
" style="fill:#648fff;"/>
    <path clip-path="url(#pbebdad1afa)" d="M 555.067637 219.638226 
L 569.226788 210.725985 
L 569.226788 210.725985 
L 555.067637 219.638226 
z
" style="fill:#324880;"/>
    <path clip-path="url(#pbebdad1afa)" d="M 532.759274 214.471781 
L 555.067637 219.638226 
L 555.067637 219.638226 
L 532.759274 214.471781 
z
" style="fill:#324880;"/>
   </g>
   <g id="Poly3DCollection_29">
    <path clip-path="url(#pbebdad1afa)" d="M 663.918688 208.366947 
L 663.918688 208.366947 
L 686.807781 213.465108 
L 686.807781 213.465108 
z
" style="fill:#324880;"/>
    <path clip-path="url(#pbebdad1afa)" d="M 650.711601 217.233299 
L 650.711601 217.233299 
L 663.918688 208.366947 
L 663.918688 208.366947 
z
" style="fill:#324880;"/>
    <path clip-path="url(#pbebdad1afa)" d="M 650.711601 217.233299 
L 663.918688 208.366947 
L 686.807781 213.465108 
L 673.749078 222.430783 
z
" style="fill:#324880;"/>
    <path clip-path="url(#pbebdad1afa)" d="M 650.711601 217.233299 
L 673.749078 222.430783 
L 686.807781 213.465108 
L 663.918688 208.366947 
z
" style="fill:#648fff;"/>
    <path clip-path="url(#pbebdad1afa)" d="M 673.749078 222.430783 
L 686.807781 213.465108 
L 686.807781 213.465108 
L 673.749078 222.430783 
z
" style="fill:#324880;"/>
    <path clip-path="url(#pbebdad1afa)" d="M 650.711601 217.233299 
L 673.749078 222.430783 
L 673.749078 222.430783 
L 650.711601 217.233299 
z
" style="fill:#324880;"/>
   </g>
   <g id="Poly3DCollection_30">
    <path clip-path="url(#pbebdad1afa)" d="M 591.64737 215.850478 
L 591.64737 215.850478 
L 614.31925 221.032408 
L 614.31925 221.032408 
z
" style="fill:#324880;"/>
    <path clip-path="url(#pbebdad1afa)" d="M 577.627068 224.862817 
L 577.627068 224.862817 
L 591.64737 215.850478 
L 591.64737 215.850478 
z
" style="fill:#324880;"/>
    <path clip-path="url(#pbebdad1afa)" d="M 577.627068 224.862817 
L 600.441831 230.146541 
L 614.31925 221.032408 
L 591.64737 215.850478 
z
" style="fill:#648fff;"/>
    <path clip-path="url(#pbebdad1afa)" d="M 577.627068 224.862817 
L 591.64737 215.850478 
L 614.31925 221.032408 
L 600.441831 230.146541 
z
" style="fill:#324880;"/>
    <path clip-path="url(#pbebdad1afa)" d="M 600.441831 230.146541 
L 614.31925 221.032408 
L 614.31925 221.032408 
L 600.441831 230.146541 
z
" style="fill:#324880;"/>
    <path clip-path="url(#pbebdad1afa)" d="M 577.627068 224.862817 
L 600.441831 230.146541 
L 600.441831 230.146541 
L 577.627068 224.862817 
z
" style="fill:#324880;"/>
   </g>
   <g id="Poly3DCollection_31">
    <path clip-path="url(#pbebdad1afa)" d="M 709.952755 218.620262 
L 709.952755 218.620262 
L 733.357927 223.83337 
L 733.357927 223.83337 
z
" style="fill:#324880;"/>
    <path clip-path="url(#pbebdad1afa)" d="M 697.046614 227.686939 
L 697.046614 227.686939 
L 709.952755 218.620262 
L 709.952755 218.620262 
z
" style="fill:#324880;"/>
    <path clip-path="url(#pbebdad1afa)" d="M 697.046614 227.686939 
L 720.608638 233.002766 
L 733.357927 223.83337 
L 709.952755 218.620262 
z
" style="fill:#648fff;"/>
    <path clip-path="url(#pbebdad1afa)" d="M 697.046614 227.686939 
L 709.952755 218.620262 
L 733.357927 223.83337 
L 720.608638 233.002766 
z
" style="fill:#324880;"/>
    <path clip-path="url(#pbebdad1afa)" d="M 720.608638 233.002766 
L 733.357927 223.83337 
L 733.357927 223.83337 
L 720.608638 233.002766 
z
" style="fill:#324880;"/>
    <path clip-path="url(#pbebdad1afa)" d="M 697.046614 227.686939 
L 720.608638 233.002766 
L 720.608638 233.002766 
L 697.046614 227.686939 
z
" style="fill:#324880;"/>
   </g>
   <g id="Poly3DCollection_32">
    <path clip-path="url(#pbebdad1afa)" d="M 637.246674 226.272746 
L 637.246674 226.272746 
L 660.433989 231.572484 
L 660.433989 231.572484 
z
" style="fill:#324880;"/>
    <path clip-path="url(#pbebdad1afa)" d="M 623.516284 235.490407 
L 623.516284 235.490407 
L 637.246674 226.272746 
L 637.246674 226.272746 
z
" style="fill:#324880;"/>
    <path clip-path="url(#pbebdad1afa)" d="M 623.516284 235.490407 
L 637.246674 226.272746 
L 660.433989 231.572484 
L 646.854888 240.895448 
z
" style="fill:#324880;"/>
    <path clip-path="url(#pbebdad1afa)" d="M 623.516284 235.490407 
L 646.854888 240.895448 
L 660.433989 231.572484 
L 637.246674 226.272746 
z
" style="fill:#648fff;"/>
    <path clip-path="url(#pbebdad1afa)" d="M 646.854888 240.895448 
L 660.433989 231.572484 
L 660.433989 231.572484 
L 646.854888 240.895448 
z
" style="fill:#324880;"/>
    <path clip-path="url(#pbebdad1afa)" d="M 623.516284 235.490407 
L 646.854888 240.895448 
L 646.854888 240.895448 
L 623.516284 235.490407 
z
" style="fill:#324880;"/>
   </g>
   <g id="Poly3DCollection_33">
    <path clip-path="url(#pbebdad1afa)" d="M 683.885638 236.93264 
L 683.885638 236.93264 
L 707.606167 242.354251 
L 707.606167 242.354251 
z
" style="fill:#324880;"/>
    <path clip-path="url(#pbebdad1afa)" d="M 670.462203 246.362721 
L 670.462203 246.362721 
L 683.885638 236.93264 
L 683.885638 236.93264 
z
" style="fill:#324880;"/>
    <path clip-path="url(#pbebdad1afa)" d="M 670.462203 246.362721 
L 694.342897 251.893306 
L 707.606167 242.354251 
L 683.885638 236.93264 
z
" style="fill:#648fff;"/>
    <path clip-path="url(#pbebdad1afa)" d="M 670.462203 246.362721 
L 683.885638 236.93264 
L 707.606167 242.354251 
L 694.342897 251.893306 
z
" style="fill:#324880;"/>
    <path clip-path="url(#pbebdad1afa)" d="M 694.342897 251.893306 
L 707.606167 242.354251 
L 707.606167 242.354251 
L 694.342897 251.893306 
z
" style="fill:#324880;"/>
    <path clip-path="url(#pbebdad1afa)" d="M 670.462203 246.362721 
L 694.342897 251.893306 
L 694.342897 251.893306 
L 670.462203 246.362721 
z
" style="fill:#324880;"/>
   </g>
  </g>
 </g>
 <defs>
  <clipPath id="p82a5d148fe">
   <rect height="271.8" width="380.454545" x="7.2" y="7.2"/>
  </clipPath>
  <clipPath id="pbebdad1afa">
   <rect height="271.8" width="380.454545" x="463.745455" y="7.2"/>
  </clipPath>
 </defs>
</svg>
